<svg width="187" height="356" viewBox="0 0 187 356" fill="none" xmlns="http://www.w3.org/2000/svg">
<path d="M129.166 351.916C128.318 351.916 127.52 351.516 127.012 350.84L126.383 353.082C126.197 353.424 126.446 353.843 126.837 353.843H128.046C128.398 353.843 128.734 353.692 128.968 353.43L130.317 351.916H129.166Z" fill="#694521"/>
<path d="M123.868 353.078L121.056 352.091C120.751 351.985 120.547 351.696 120.547 351.375L119.249 353.365C119.055 353.662 119.016 354.036 119.146 354.367C119.291 354.736 119.624 355 120.018 355.055L120.617 355.138C121.284 355.232 121.955 355.006 122.429 354.528L123.868 353.078Z" fill="#694521"/>
<path d="M118.218 351.91L116.106 352.398C115.959 352.431 115.808 352.449 115.657 352.449C114.867 352.449 114.152 351.985 113.831 351.263L113.379 350.246L112.682 350.803C112.231 351.163 111.969 351.711 111.969 352.288C111.969 352.791 112.17 353.275 112.527 353.627C112.995 354.091 113.672 354.274 114.31 354.113L114.894 353.965C115.23 353.881 115.55 353.737 115.836 353.541L118.218 351.91Z" fill="#694521"/>
<ellipse cx="89.5" cy="52" rx="30.5" ry="44" fill="#DEB888"/>
<path d="M70.9222 126.965C66.912 123.637 62.599 117.651 60.516 114.589C59.7839 113.512 58.3578 113.133 57.2031 113.735C57.2031 113.735 59.0623 119.187 61.0986 122.205C63.7225 126.095 65.6573 128.158 69.2623 131.162C73.0259 134.299 75.7433 135.712 79.785 137.814C80.2045 138.032 80.6382 138.258 81.0887 138.494C81.2944 138.601 81.4966 138.707 81.696 138.812C86.5901 141.376 89.7234 143.017 95.3915 143.559C97.1365 143.726 99.2687 143.607 101.211 143.401C104.895 143.01 108.414 141.762 111.759 140.171C115.485 138.399 118.955 136.133 122.074 133.434L125.41 130.548L139.311 115.745C136.181 114.457 132.585 115.537 130.558 118.245C129.568 119.568 128.471 120.984 127.429 122.223C127.219 122.472 126.873 122.869 126.678 123.093C126.579 123.205 126.481 123.316 126.381 123.427C126.051 123.797 125.254 124.689 124.833 125.159C121.266 129.139 118.651 131.866 113.554 134.837C107.771 138.209 104.012 140.892 97.3349 140.393C91.8371 139.983 87.9066 138.198 82.9776 135.73C77.5393 133.007 75.602 130.848 70.9222 126.965Z" fill="#292929"/>
<path d="M177.063 249.926C178.86 249.759 180.562 249.045 181.94 247.881L182.969 247.01C184.749 245.505 185.585 243.162 185.159 240.871L136.958 247.124L133.945 253.374H138.502H139.97L146.184 252.796L162.344 251.293L177.063 249.926Z" fill="#1B1B1B"/>
<path d="M2.93161 226.35C2.84425 226.767 2.68758 227.166 2.46812 227.532C1.21084 229.624 2.21683 232.343 4.53445 233.116L16.873 237.224L35.3736 243.386L38.9465 244.576L36.3973 235.779L3.34208 224.391L2.93161 226.35Z" fill="#1B1B1B"/>
<path d="M16.8672 237.223L18.9535 244.575L35.3678 243.385L16.8672 237.223Z" fill="#292929"/>
<path d="M160.611 264.577C161.763 260.441 162.348 256.169 162.348 251.877V251.289L146.188 252.792L150.098 253.37C151.583 253.769 152.99 254.418 154.258 255.288L156.01 256.489L158.633 258.643C158.927 258.883 159.193 259.158 159.424 259.459C160.018 260.234 160.371 261.167 160.439 262.138L160.611 264.577Z" fill="#292929"/>
<path d="M56.0399 347.393C57.1894 348.463 57.9551 349.881 58.2191 351.427L62.7902 351.931C65.9245 352.277 69.0817 352.369 72.2309 352.212L87.785 351.427L98.1074 350.011L108.43 348.593H114.893L115.474 347.625C116.339 346.184 117.012 344.636 117.474 343.019C117.965 341.302 118.214 339.526 118.214 337.74V334.422L118.105 335.305C117.822 337.622 117.064 339.854 115.88 341.866L114.867 343.176C114.528 343.615 114.108 343.983 113.628 344.26L113.065 344.589C112.136 345.125 110.995 345.149 110.045 344.648L108.879 343.839C107.163 344.903 105.242 345.596 103.241 345.871L83.4765 348.593H66.0631L65.3025 348.52C62.3841 348.241 59.645 346.986 57.5266 344.962C57.5266 344.962 54.7321 342.685 53.877 340.586C53.2302 338.997 52.5347 337.815 52.0696 337.107C51.7891 336.68 51.2084 336.629 50.8283 336.969C50.6393 337.138 50.5312 337.38 50.5312 337.634V339.323C50.5312 340.366 50.8801 341.379 51.5223 342.201L53.7978 345.114C54.1659 345.586 54.5706 346.026 55.0086 346.433L56.0399 347.393Z" fill="#1B1B1B"/>
<path d="M145.22 313.568L144.111 318.372C143.886 319.347 143.559 320.295 143.136 321.202C142.439 322.693 142.006 324.292 141.854 325.93L141.537 329.358C141.449 330.316 141.285 331.264 141.048 332.197C140.671 333.678 140.48 335.2 140.48 336.728V337.373C140.48 337.442 140.48 337.511 140.478 337.58C140.468 337.985 140.408 339.501 140.068 340.436C139.59 341.748 138.955 343.006 138.601 344.356L138.312 345.459L140.48 344.653C142.946 343.653 145.194 342.188 147.1 340.333L149.441 338.054L149.671 324.374C149.737 320.502 149.42 316.633 148.727 312.823L147.536 306.277L145.22 313.568Z" fill="#292929"/>
<path d="M138.305 345.452L135.984 348.591L134.727 350.245C137.208 349.453 139.474 348.103 141.352 346.302L141.769 345.901L142.053 345.684C142.952 344.996 143.958 344.459 145.031 344.093L146.942 343.442C147.533 343.241 148.055 342.879 148.451 342.398C148.877 341.88 149.138 341.245 149.199 340.578L149.433 338.047L147.092 340.326C145.186 342.181 142.938 343.646 140.472 344.646L138.305 345.452Z" fill="#171616"/>
<path d="M24.5744 132.059L19.4776 147.339L3.33594 224.394L36.3912 235.782L38.9403 244.58V198.687C38.9403 194.964 38.5874 191.248 37.8866 187.591L33.4451 164.414L30.1184 152.28L24.5744 132.059Z" fill="#292929"/>
<path d="M185.163 240.87L167.778 147.336L165.229 139.695L149.006 182.306C148.239 184.323 147.315 186.276 146.243 188.15L145.363 189.687C144.073 191.942 143.096 194.363 142.46 196.882L138.505 212.546C137.48 216.607 136.961 220.779 136.961 224.968V247.123L185.163 240.87Z" fill="#292929"/>
<path d="M47.1713 321.264C48.8516 322.605 50.374 324.136 51.7095 325.821L51.9676 326.146L53.1813 252.796L47.8109 199.286L44.5464 181.614C42.8347 172.347 38.9266 163.624 33.1493 156.176L30.125 152.277L33.4516 164.411L37.8932 187.588C38.5939 191.245 38.9469 194.961 38.9469 198.684V244.577L35.374 243.387L38.3148 251.555C39.2967 254.283 39.939 257.121 40.2275 260.005C40.4149 261.877 40.4525 263.761 40.3397 265.64L39.7931 274.744L40.5874 307.74C40.6147 308.877 40.7429 310.01 40.9702 311.127L41.2773 312.632C41.7133 314.77 42.6735 316.768 44.0717 318.444C44.6394 319.124 45.2742 319.746 45.9667 320.3L47.1713 321.264Z" fill="#1E1E1E"/>
<path d="M133.95 253.373L136.963 247.122V224.968C136.963 220.778 137.481 216.607 138.507 212.545C134.695 209.333 128.921 212.458 129.529 217.403L133.95 253.373Z" fill="#1E1E1E"/>
<path fill-rule="evenodd" clip-rule="evenodd" d="M24.5703 132.058L38.9362 123.26L57.1945 113.734C57.1945 113.734 59.0537 119.186 61.09 122.204C63.7139 126.094 65.6487 128.157 69.2537 131.161C73.0173 134.298 75.7347 135.711 79.7765 137.814C80.1959 138.032 80.6296 138.257 81.0801 138.493C81.2858 138.6 81.488 138.706 81.6874 138.811C86.5815 141.375 89.7148 143.016 95.3829 143.558C97.1279 143.725 99.2601 143.606 101.202 143.4C104.886 143.01 108.406 141.761 111.751 140.17C115.477 138.398 118.946 136.132 122.066 133.433L125.402 130.547L139.302 115.744C139.302 115.744 145.904 117.806 149.692 120.019C152.022 121.38 154.51 123.512 156.677 125.607L146.714 156.842C142.592 169.763 141.141 183.386 142.448 196.885L138.493 212.549C134.681 209.337 128.907 212.462 129.515 217.407L133.936 253.376L135.89 279.18L132.12 298.463L127.879 313.751C127.655 314.557 127.346 315.338 126.956 316.08L126.445 317.051C125.927 318.039 125.185 318.89 124.279 319.539C124.001 319.738 123.738 319.956 123.492 320.192L122.033 321.593C120.741 322.832 119.545 324.167 118.456 325.587L116.63 327.969C116.127 328.624 115.699 329.334 115.355 330.086L115.315 330.174C115.029 330.796 114.808 331.445 114.655 332.109C114.451 332.993 114.129 333.844 113.698 334.641L112.552 336.759L110.039 341.513L108.872 343.844C107.156 344.908 105.235 345.6 103.234 345.875L83.4698 348.598H66.0564L65.2958 348.525C62.3774 348.246 59.6383 346.991 57.5199 344.967C58.2407 344.849 58.7661 344.221 58.736 343.492C58.6787 342.105 58.5397 339.93 58.2124 338.795C58.163 338.624 58.1167 338.472 58.0736 338.337C57.8595 337.666 57.5105 337.05 57.155 336.444L56.2538 334.904C55.4901 333.598 54.8505 332.224 54.3441 330.8L51.957 326.148L53.1707 252.798L47.8002 199.288L44.5358 181.616C42.8241 172.349 38.916 163.627 33.1387 156.179L30.1144 152.28L24.5703 132.058Z" fill="#292929"/>
<path d="M162.67 132.057C162.67 132.057 160.065 128.878 156.679 125.605L146.716 156.841C142.595 169.762 141.143 183.385 142.45 196.883C143.086 194.364 144.063 191.944 145.353 189.689L146.233 188.151C147.304 186.278 148.228 184.324 148.996 182.308L165.219 139.697L162.67 132.057Z" fill="#1E1E1E"/>
<path d="M18.9596 244.573L18.0902 252.45C17.6796 256.171 17.6242 259.922 17.9248 263.653L18.5985 272.014C18.8389 274.998 19.3061 277.958 19.9961 280.871L24.5808 300.223L25.8106 307.172C26.1628 309.162 26.3399 311.178 26.3399 313.198C26.3399 316.711 26.8751 320.204 27.9271 323.556L28.215 324.472L30.1248 332.583L30.2404 332.973C30.9842 335.481 32.0643 337.878 33.4514 340.097L34.462 341.814C34.9634 342.667 35.7521 343.313 36.6867 343.637C37.1954 343.812 37.6648 344.086 38.0694 344.442L41.708 347.632L44.7417 350.045L46.9103 351.929C47.5066 352.447 48.1839 352.864 48.9154 353.163L49.6122 353.446C50.7493 353.91 52.0146 353.955 53.1811 353.57L53.0609 353.235C52.7556 352.384 52.2794 351.605 51.6613 350.944C51.4066 350.673 51.1292 350.421 50.8322 350.195L48.0837 348.106C47.9024 347.968 47.7369 347.809 47.5906 347.636L46.6342 346.493C46.5832 346.432 46.5655 346.349 46.5873 346.273C46.6406 346.084 46.8855 346.037 47.007 346.19L48.3674 347.911C48.4591 348.027 48.5693 348.127 48.6933 348.208L53.6384 351.426L54.6645 352.317C55.0696 352.671 55.6481 352.74 56.1263 352.496L58.2228 351.426C57.9589 349.88 57.1932 348.462 56.0436 347.392L55.0123 346.432C54.5744 346.025 54.1697 345.584 53.8016 345.112L51.5261 342.199C50.8838 341.377 50.535 340.364 50.535 339.322V337.632C50.535 337.379 50.643 337.137 50.832 336.968C51.2121 336.627 51.7928 336.678 52.0733 337.105C52.5384 337.813 53.2339 338.995 53.8807 340.585C54.7358 342.683 57.5304 344.961 57.5304 344.961C58.2512 344.843 58.7766 344.215 58.7464 343.486C58.6892 342.099 58.5502 339.924 58.2228 338.789C58.1734 338.618 58.1272 338.466 58.0841 338.331C57.8699 337.66 57.5209 337.044 57.1654 336.438L56.2643 334.898C55.5005 333.592 54.861 332.218 54.3545 330.794L51.9674 326.142L51.7093 325.817C50.3738 324.132 48.8514 322.602 47.1711 321.26L45.9665 320.297C45.274 319.742 44.6392 319.12 44.0715 318.44C42.6733 316.764 41.7131 314.766 41.2771 312.628L40.97 311.123C40.7427 310.006 40.6145 308.873 40.5872 307.736L39.7929 274.74L40.3395 265.636C40.4523 263.757 40.4147 261.873 40.2273 260.001C39.9388 257.117 39.2965 254.279 38.3146 251.551L35.3738 243.383L18.9596 244.573Z" fill="#F9CB92"/>
<path d="M139.964 253.375H138.496L137.419 265.096L135.893 279.178L132.123 298.461L127.882 313.75C127.658 314.556 127.349 315.337 126.959 316.078L126.448 317.05C125.93 318.037 125.188 318.889 124.282 319.538C124.004 319.737 123.741 319.955 123.495 320.191L122.036 321.591C120.744 322.831 119.548 324.166 118.459 325.586L116.633 327.968C116.13 328.623 115.702 329.333 115.358 330.084L115.318 330.173C115.033 330.794 114.811 331.443 114.658 332.108C114.454 332.991 114.132 333.843 113.701 334.64L112.555 336.758L110.042 341.512L108.875 343.842L110.042 344.651C110.991 345.152 112.132 345.129 113.061 344.592L113.624 344.263C114.104 343.986 114.525 343.618 114.864 343.18L115.876 341.87C117.06 339.858 117.818 337.625 118.102 335.308L118.21 334.425V337.743C118.21 339.529 117.961 341.305 117.47 343.022C117.008 344.639 116.336 346.187 115.47 347.629L114.889 348.596L113.452 349.873C113.346 349.967 113.313 350.121 113.37 350.25L113.823 351.267C114.144 351.989 114.859 352.453 115.649 352.453C115.8 352.453 115.951 352.436 116.098 352.402L118.21 351.914L119.377 351.377L122.045 346.004C122.202 345.687 122.563 345.528 122.903 345.626C123.379 345.764 123.582 346.325 123.306 346.736L120.544 350.838V351.377C120.544 351.698 120.748 351.987 121.052 352.093L123.865 353.081H125.536L128.143 346.22C128.218 346.024 128.385 345.874 128.591 345.823C129.142 345.685 129.59 346.277 129.308 346.769L128.263 348.596L127.007 350.838C127.515 351.515 128.313 351.914 129.161 351.914H130.311L130.582 351.556C131.605 350.201 132.308 348.636 132.639 346.972L132.953 345.394C133.051 344.903 133.25 344.438 133.537 344.029L134.842 342.167C135.107 341.789 135.607 341.659 136.023 341.86C136.528 342.104 136.708 342.733 136.408 343.207L135.186 345.144L134.277 346.803L132.841 350.032L133.632 350.477C134.002 350.683 134.468 350.587 134.725 350.25L135.983 348.596L138.303 345.457L138.591 344.354C138.945 343.005 139.58 341.746 140.058 340.434C140.399 339.5 140.459 337.983 140.469 337.578C140.47 337.509 140.471 337.44 140.471 337.371V336.726C140.471 335.198 140.661 333.676 141.038 332.195C141.275 331.262 141.439 330.314 141.527 329.357L141.845 325.928C141.996 324.29 142.43 322.691 143.126 321.2C143.549 320.293 143.876 319.345 144.101 318.37L145.211 313.567L147.526 306.276L159.448 268.719L160.601 264.582L160.43 262.143C160.362 261.172 160.008 260.239 159.415 259.465C159.183 259.164 158.918 258.888 158.624 258.648L156.001 256.495L154.249 255.293C152.981 254.423 151.574 253.774 150.088 253.375L146.178 252.797L139.964 253.375Z" fill="#F9CB92"/>
<path d="M120.55 350.839L123.312 346.736C123.588 346.325 123.385 345.764 122.909 345.627C122.569 345.528 122.208 345.688 122.051 346.004L119.383 351.378L120.55 350.839Z" fill="#B47238"/>
<path d="M127.002 350.836L128.258 348.594L129.303 346.767C129.585 346.275 129.137 345.683 128.586 345.821C128.381 345.872 128.214 346.022 128.139 346.218L125.531 353.079H126.374L127.002 350.836Z" fill="#B47238"/>
<path d="M132.842 350.032L134.278 346.802L135.187 345.144L136.409 343.207C136.709 342.733 136.529 342.103 136.024 341.859C135.608 341.659 135.108 341.789 134.843 342.166L133.538 344.029C133.251 344.438 133.052 344.902 132.955 345.394L132.64 346.971C132.309 348.635 131.606 350.201 130.584 351.556L130.312 351.914C130.893 351.914 131.444 351.66 131.821 351.222L132.842 350.032Z" fill="#B47238"/>
<path d="M47.007 346.189C46.8855 346.036 46.6407 346.083 46.5873 346.272C46.5655 346.349 46.5832 346.431 46.6342 346.492L47.5906 347.635C47.7369 347.808 47.9024 347.967 48.0837 348.105L50.8322 350.194C51.1292 350.42 51.4066 350.672 51.6613 350.943C52.2794 351.604 52.7556 352.383 53.0609 353.235L53.1811 353.569L53.7811 353.227C54.1557 353.012 54.462 352.698 54.6645 352.316L53.6384 351.425L48.6933 348.207C48.5693 348.127 48.4591 348.026 48.3674 347.91L47.007 346.189Z" fill="#4A2312"/>
<path d="M89.4934 74.5612L82.3516 76.376C82.3516 76.376 88.0283 78.4639 91.685 78.3974C95.3297 78.3311 97.3763 77.1751 100.843 76.0485C99.6182 75.8022 95.7727 74.5844 94.5416 74.3712C93.3106 74.1582 93.5789 74.6617 92.3336 74.5612C91.228 74.4719 92.0104 73.9963 89.4934 74.5612Z" fill="#7B262B"/>
<path d="M86.8703 72.8475C84.1387 74.1063 81.1172 76.0444 81.1172 76.0444L82.3579 76.3719L89.4997 74.5571C92.0167 73.9922 91.2343 74.4678 92.3399 74.5571C93.5852 74.6576 93.3169 74.1541 94.5479 74.3671C95.779 74.5803 99.6245 75.7982 100.849 76.0444C99.1832 74.0422 97.3135 72.8475 94.7955 72.176C93.3578 71.7927 92.8378 72.3713 91.3561 72.5098C89.2739 72.7041 88.7692 71.9723 86.8703 72.8475Z" fill="#A35A4C"/>
<path d="M88.6162 60.9644C87.6808 60.2969 86.0234 61.2388 86.008 62.3873C85.9952 63.3276 86.5564 63.9133 87.4967 63.8728C88.4026 63.8339 88.9075 62.9868 88.9744 62.0832C89.0242 61.4099 88.9744 61.2203 88.6162 60.9644Z" fill="#4A191A"/>
<path d="M95.1445 61.2566C94.6817 61.2001 94.3497 61.2261 94.1304 61.6372C93.9249 62.0225 94.1304 63.8743 94.1304 63.8743C94.1304 63.8743 94.2629 64.105 94.7947 64.2267C95.3412 64.352 95.9931 64.0363 96.0537 63.3881C96.0778 63.1314 96.0409 62.7547 95.9473 62.3887C95.9209 62.2855 95.89 62.1832 95.8545 62.0846C95.6998 61.6535 95.4607 61.2953 95.1445 61.2566Z" fill="#49191A"/>
<path d="M83.9245 40.6074C85.2823 40.6418 87.3161 39.8372 87.3161 39.8372L85.929 34.2919C85.929 34.2919 79.977 32.7526 76.2174 33.3678C73.9592 33.7372 73.1889 36.0949 71.6721 36.8765C71.6386 37.0622 71.6048 37.2463 71.5703 37.4292C73.4368 37.4618 75.5837 36.6745 78.375 37.6807C80.6802 38.5117 81.4746 40.5455 83.9245 40.6074Z" fill="#925B46"/>
<path fill-rule="evenodd" clip-rule="evenodd" d="M77.4309 43.8791C76.4742 43.8686 75.392 44.2016 74.3973 44.6334C74.3973 44.6334 74.5282 44.6827 74.0361 45.1135C74.0361 45.1135 73.7808 45.7375 73.8767 46.1264C73.9745 46.5233 73.8125 47.3293 73.8125 47.3293C74.8477 47.8739 76.2592 48.5088 77.4309 48.6477C78.2393 48.7435 79.2229 48.6377 80.117 48.4744C80.117 48.4744 82.411 47.4794 82.5887 46.5843C82.7582 45.7309 80.9551 44.9311 80.9551 44.9311C79.8465 44.3796 78.5529 43.8913 77.4309 43.8791ZM75.4841 45.8748C75.4841 44.0053 78.1273 43.8555 78.1273 43.8555C78.1273 43.8555 80.5951 44.0872 80.5951 45.4653C80.5951 46.7328 79.6719 47.7642 78.4101 47.894C77.0287 48.0362 75.4841 47.4406 75.4841 45.8748Z" fill="#B79685"/>
<path fill-rule="evenodd" clip-rule="evenodd" d="M78.1198 43.8555C78.1198 43.8555 75.4766 44.0053 75.4766 45.8748C75.4766 47.4406 77.0212 48.0362 78.4026 47.894C79.6644 47.7642 80.5876 46.7328 80.5876 45.4653C80.5876 44.0872 78.1198 43.8555 78.1198 43.8555ZM78.1198 45.1135C78.6138 45.0867 79.1443 45.1528 79.2766 45.6292C79.4335 46.1933 78.7054 46.5622 78.1198 46.5843C77.5875 46.6041 76.9722 46.4067 76.9552 45.8748C76.9509 45.7387 76.9877 45.6248 77.0541 45.5302C76.9489 45.4718 76.8928 45.3896 76.8883 45.2142C76.8777 44.8196 77.5666 44.8985 77.9485 45.128C78.006 45.1213 78.0635 45.1164 78.1198 45.1135Z" fill="#86564B"/>
<path d="M79.2904 45.6302C79.1582 45.1538 78.6277 45.0877 78.1336 45.1144C78.0773 45.1174 78.0198 45.1223 77.9624 45.129C78.1336 45.2319 78.2505 45.1862 78.1336 45.4663C78.0096 45.7639 77.6299 45.7326 77.3242 45.6302L77.2986 45.6215C77.2057 45.5904 77.1285 45.5649 77.0679 45.5312C77.0016 45.6258 76.9648 45.7397 76.9691 45.8758C76.986 46.4077 77.6013 46.6051 78.1336 46.5853C78.7192 46.5632 79.4473 46.1942 79.2904 45.6302Z" fill="#582C2B"/>
<path d="M77.3188 45.634C77.6245 45.7364 78.0042 45.7677 78.1282 45.4701C78.2451 45.1901 78.1282 45.2357 77.9569 45.1328C77.9367 45.1352 77.9162 45.1377 77.8959 45.1407C77.558 45.1881 77.2237 45.3051 77.0625 45.535C77.1231 45.5687 77.2003 45.5942 77.2932 45.6253L77.3188 45.634Z" fill="#B5AFAF"/>
<path d="M77.9509 45.1324C77.5691 44.9028 76.8801 44.824 76.8907 45.2185C76.8953 45.394 76.9514 45.4762 77.0565 45.5346C77.2177 45.3047 77.5519 45.1876 77.8899 45.1402C77.9102 45.1373 77.9307 45.1347 77.9509 45.1324Z" fill="#B5AFAF"/>
<path d="M82.644 47.8432L83.556 46.4972C83.556 46.4972 82.4165 45.6605 80.9553 44.9336C80.9553 44.9336 82.7584 45.7333 82.5889 46.5867C82.4112 47.4818 80.1172 48.4769 80.1172 48.4769C81.4854 48.2271 82.644 47.8432 82.644 47.8432Z" fill="#B1846D"/>
<path d="M84.4762 47.8459L83.5526 46.5L82.6406 47.8459H84.4762Z" fill="#B1846D"/>
<path d="M73.6606 45.4691C73.4162 45.7165 72.3672 46.4985 72.3672 46.4985C72.3672 46.4985 72.964 46.8854 73.815 47.333C73.815 47.333 73.977 46.527 73.8791 46.1301C73.7833 45.7413 74.0386 45.1172 74.0386 45.1172C73.9026 45.2364 73.7721 45.3566 73.6606 45.4691Z" fill="#B1846D"/>
<path d="M71.1094 46.4942H72.3575C72.3575 46.4942 73.4065 45.7122 73.651 45.4648C73.7624 45.3523 73.8929 45.2321 74.0289 45.1129C74.521 44.6822 74.3901 44.6328 74.3901 44.6328C72.6097 45.4056 71.1094 46.4942 71.1094 46.4942Z" fill="#B1846D"/>
<path d="M80.8125 4.26529L82.9526 10.8815C82.9526 10.8815 86.0873 7.6679 89.6767 7.21979C101.183 5.78342 109.16 11.0778 116.417 20.1136C123.766 29.2624 123.138 49.3929 123.138 49.3929L121.256 74.3676C121.256 74.3676 128.919 88.408 128.246 98.0129C127.776 104.731 126.633 120.762 126.633 120.762L130.128 136.425C130.128 136.425 135.626 148.874 136.311 157.377C136.964 165.484 133.892 178.061 133.892 178.061L133.011 183.4C133.011 183.4 130.481 193.979 130.128 200.894C129.555 212.095 133.892 229.366 133.892 229.366L136.58 236.62L139.268 243.872L140.881 264.825C140.881 264.825 150.333 237.845 145.451 221.578C143.549 215.24 139.492 212.754 138.193 206.266C137.143 201.02 138.001 197.912 138.193 192.566C138.556 182.448 140.881 166.779 140.881 166.779C140.881 166.779 146.841 150.326 146.796 139.38C146.751 128.639 141.807 123.219 140.881 112.518C140.267 105.425 141.402 101.388 140.881 94.2882C139.79 79.4082 132.279 57.0632 132.279 57.0632C132.279 57.0632 131.697 32.2709 123.138 20.1136C117.791 12.518 113.773 8.28588 105.395 4.26529C100.086 1.71706 96.7152 -0.416219 90.8609 0.235769C86.6585 0.703785 80.8125 4.26529 80.8125 4.26529Z" fill="#5E423F"/>
<path d="M73.9571 15.4491C62.4755 23.7034 66.0813 36.0551 61.0348 49.2583L63.452 75.3441L66.9468 100.87C68.3117 110.838 58.3062 111.296 56.9999 119.404C55.3976 129.352 63.452 144.386 63.452 144.386L71.3491 159.697C71.3491 159.697 66.5515 144.614 66.9468 134.716C67.2481 127.17 68.5623 123.328 70.8413 115.775C78.1148 108.204 82.3058 101.537 80.4893 91.2008C79.3927 84.9606 75.4998 81.64 73.2607 75.7127C71.0183 69.7763 69.1081 60.0038 69.1081 60.0038C69.1081 60.0038 67.3627 55.0452 68.5223 50.1987C69.6624 45.4338 70.748 41.8307 71.5737 37.4338C70.998 37.4236 71.3491 37.0599 71.3491 37.0599C71.3491 37.0599 71.043 37.207 71.6755 36.8811C71.8216 36.0694 71.9588 35.2288 72.0859 34.3476C72.8174 29.2785 71.1155 25.297 74.5088 21.4585C77.0298 18.6067 83.2601 17.1606 83.2601 17.1606L83.4571 13.8375L82.9577 10.8828C82.9577 10.8828 77.157 13.1486 73.9571 15.4491Z" fill="#836358"/>
<path d="M52.1625 80.822C48.8054 101.311 47.0547 133.74 47.0547 133.74C47.0547 133.74 50.9433 110.341 54.8508 95.6808C57.0905 87.2782 63.443 75.3436 63.443 75.3436L61.0258 49.2578C57.8773 61.8461 54.2605 68.017 52.1625 80.822Z" fill="#95756A"/>
<path d="M63.443 75.3398C63.443 75.3398 57.0905 87.2745 54.8508 95.6771C50.9433 110.337 47.0547 133.736 47.0547 133.736L50.8183 145.287C50.8183 145.287 58.7747 159.948 59.9587 170.268C60.9545 178.949 58.779 183.854 58.0769 192.564C57.5863 198.647 56.8618 208.143 56.8618 208.143C56.8618 208.143 64.9425 222.047 64.7976 231.783C64.7264 236.58 62.606 243.869 62.606 243.869L58.0769 268.852L61.3029 262.941C61.3029 262.941 66.6342 253.18 69.2 246.556C74.7268 232.29 76.8908 208.143 76.8908 208.143C76.8908 208.143 77.8435 199.095 79.1165 187.535C80.3893 175.974 76.2635 170.183 71.3401 159.693L63.443 144.382C63.443 144.382 55.3886 129.348 56.9909 119.4C58.2971 111.291 68.3026 110.834 66.9377 100.865L63.443 75.3398Z" fill="#6C4F54"/>
<path d="M50.8291 145.289C50.8291 145.289 44.7854 158.026 44.3782 166.778C43.8955 177.148 50.1328 182.209 50.8291 192.566C51.5954 203.964 48.5353 210.248 47.0654 221.577L50.8291 241.186V250.588V262.944L54.8616 250.588V233.933L56.8725 208.145C56.8725 208.145 57.5971 198.649 58.0876 192.566C58.7898 183.856 60.9653 178.952 59.9694 170.271C58.7854 159.951 50.8291 145.289 50.8291 145.289Z" fill="#4D3C4C"/>
<path d="M47.058 133.738C47.058 133.738 40.8744 146.464 38.993 155.228C38.0373 159.68 37.94 162.555 37.404 166.778C38.0247 168.771 38.3676 169.89 38.993 171.882C41.0405 178.403 43.4798 181.761 44.3707 188.536C45.5681 197.644 42.9318 202.805 41.682 211.906C39.9598 224.446 36.3047 243.871 36.3047 243.871L38.993 264.824C38.993 264.824 43.3381 256.439 44.3707 250.588C44.8283 247.993 44.7498 246.495 44.9927 243.871L47.058 221.577C48.5278 210.248 51.5879 203.964 50.8216 192.566C50.1254 182.209 43.888 177.147 44.3707 166.778C44.778 158.026 50.8216 145.289 50.8216 145.289L47.058 133.738Z" fill="#71565C"/>
<path d="M16.3014 235.001C16.3014 242.345 17.5257 243.004 17.7581 248.175C17.9183 251.737 17.7581 257.307 17.7581 257.307C17.7581 257.307 20.6659 253.378 22.0603 250.592C24.0362 246.647 25.5553 239.848 25.5553 239.848C25.5553 239.848 23.9793 225.143 25.5553 215.941C26.9333 207.892 30.286 199.049 34.5899 192.109C29.9171 199.012 22.7012 209.228 17.7581 215.941C11.0812 225.006 16.3014 229.758 16.3014 235.001Z" fill="#7E6260"/>
<path d="M80.816 4.26562C80.816 4.26562 74.1716 7.04819 70.6406 9.90661C63.7705 15.4685 58.8929 29.2468 58.8929 29.2468C58.8929 29.2468 51.3068 44.5573 48.4077 55.0342C44.1538 70.4087 45.7167 79.7856 44.3748 95.6803C43.1211 110.527 41.6861 133.739 41.6861 133.739C41.6861 133.739 39.878 147.348 36.3088 155.229C34.6229 158.951 32.6584 160.545 31.201 164.362C28.8247 170.586 30.8892 174.881 29.0499 181.285C26.484 190.217 17.7584 202.238 17.7584 202.238C17.7584 202.238 12.8719 209.295 10.7694 214.324C5.65585 226.56 4.48501 235.409 8.0814 248.172C10.2706 255.941 17.7584 266.438 17.7584 266.438V257.304C17.7584 257.304 17.9186 251.734 17.7584 248.172C17.5259 243.001 16.3016 242.342 16.3016 234.998C16.3016 229.754 11.0814 225.002 17.7584 215.937C22.7015 209.224 29.9173 199.008 34.5902 192.106L35.8681 181.285C36.1641 177.199 36.7578 171.904 37.4082 166.779C37.9442 162.556 38.0414 159.681 38.9971 155.229C40.8785 146.465 47.0621 133.739 47.0621 133.739C47.0621 133.739 48.8128 101.31 52.17 80.8216C54.2679 68.0166 57.8847 61.8456 61.0332 49.2573C66.0796 36.0541 62.4739 23.7024 73.9555 15.4481C77.1553 13.1476 82.9561 10.8818 82.9561 10.8818L80.816 4.26562Z" fill="#8D7972"/>
<path d="M25.552 215.933C23.9761 225.136 25.552 239.84 25.552 239.84L29.0463 257.3L31.1974 243.868C31.1974 243.868 35.3795 225.996 36.3053 214.32C36.3053 214.32 36.3011 191.612 36.7037 190.375C37.106 189.137 35.5358 185.814 35.8645 181.281L34.5866 192.102C30.2827 199.042 26.9301 207.885 25.552 215.933Z" fill="#64545E"/>
<path d="M36.311 243.87C36.311 243.87 39.9661 224.445 41.6883 211.905C42.9381 202.804 45.5744 197.643 44.377 188.535C43.4861 181.76 41.0468 178.402 38.9993 171.881C38.3739 169.889 38.031 168.771 37.4103 166.777C36.76 171.902 36.1663 177.197 35.8703 181.283C35.5415 185.815 37.1117 189.139 36.7094 190.376C36.3068 191.613 36.311 214.322 36.311 214.322C35.3852 225.997 31.2031 243.87 31.2031 243.87L33.1719 257.302L36.311 243.87Z" fill="#4D3C4C"/>
<path d="M50.8289 241.188L47.0653 221.578L45 243.872L47.0653 260.528L50.8289 241.188Z" fill="#3E2C3C"/>
<path d="M56.8625 208.141L54.8516 233.928L56.8625 255.955L62.6067 243.867C62.6067 243.867 64.7271 236.577 64.7984 231.78C64.9433 222.044 56.8625 208.141 56.8625 208.141Z" fill="#3E2C3C"/>
<path d="M70.8474 115.777C68.5683 123.33 67.2542 127.172 66.9528 134.718C66.5576 144.616 71.3552 159.699 71.3552 159.699C76.2786 170.189 80.4044 175.98 79.1317 187.541C77.8587 199.102 76.906 208.149 76.906 208.149C76.906 208.149 81.6756 197.969 82.5988 190.958C82.9844 188.029 82.9951 183.404 82.9951 183.404C82.9951 183.404 81.0267 176.236 79.1317 171.886C77.8148 168.864 76.4402 167.457 75.2972 164.365C71.9144 155.213 76.5595 149.057 75.2972 139.383C74.0114 129.529 72.6628 125.533 70.8474 115.777Z" fill="#3C222B"/>
<path d="M93.1688 94.288C91.7173 94.7207 90.8402 94.8721 89.3265 94.8165C87.3984 94.7457 85.6258 94.3411 84.1328 93.6356C84.1328 93.6356 81.8034 92.4726 80.4922 91.1992L86.5963 108.168L96.9659 95.6797L97.3297 92.15C97.3297 92.15 94.9197 93.766 93.1688 94.288Z" fill="#69403A"/>
<path d="M86.5963 108.168L80.4922 91.1992L82.5956 116.547L86.5963 108.168Z" fill="#3C222B"/>
<path d="M80.4761 91.1992C82.2926 101.536 78.1016 108.202 70.8281 115.774C72.6436 125.53 73.9922 129.525 75.2779 139.38C76.5403 149.054 71.8952 155.21 75.2779 164.361C76.421 167.453 77.7955 168.86 79.1124 171.883C81.0074 176.232 82.9758 183.4 82.9758 183.4C82.9758 183.4 83.4435 174.479 83.7433 168.763C83.7841 167.988 83.8475 166.779 83.8475 166.779L84.6112 146.633L82.5796 116.547L80.4761 91.1992Z" fill="#6C4D4C"/>
<path d="M121.257 74.3658L123.139 49.3912C123.139 49.3912 123.767 29.2606 116.418 20.1118C109.16 11.0761 101.183 5.78167 89.6773 7.21804C86.0878 7.66614 82.9531 10.8797 82.9531 10.8797L83.4525 13.8344C83.4525 13.8344 86.4203 11.9948 89.6773 12.3218C98.8446 13.2422 104.65 17.3439 109.428 25.2154C113.617 32.1165 111.198 37.6909 112.654 45.6299C113.966 52.7789 113.965 57.0149 116.418 63.8569C117.943 68.1097 121.257 74.3658 121.257 74.3658Z" fill="#4B2E30"/>
<path d="M83.2578 17.1598C83.2578 17.1598 91.4222 20.9367 91.6439 22.1841C93.208 30.9875 95.8628 31.1486 99.1294 39.4727C102.599 48.3123 107.144 52.284 109.431 61.4998C110.352 65.2125 111.044 71.1608 111.044 71.1608C111.044 71.1608 117.272 104.303 116.42 125.681C115.813 140.92 113.219 149.267 111.044 164.362C108.911 179.164 109.312 187.803 105.398 202.238C101.926 215.042 93.1637 233.934 93.1637 233.934C93.1637 233.934 93.9719 242.671 93.1637 248.172C92.0616 255.671 86.5911 266.438 86.5911 266.438C86.5911 266.438 91.947 263.189 94.9138 260.528C99.9914 255.972 101.399 252.084 105.398 246.559C108.67 242.041 113.611 234.872 113.611 234.872L114.27 233.934L118.302 206.266C118.302 206.266 119.259 189.044 120.453 178.062C121.793 165.732 124.53 159.026 125.023 146.633C125.525 134.027 126.636 120.762 126.636 120.762C126.636 120.762 127.779 104.731 128.249 98.0134C128.922 88.4085 121.259 74.3682 121.259 74.3682C121.259 74.3682 117.945 68.112 116.42 63.8593C113.967 57.0172 113.968 52.7812 112.657 45.6323C111.201 37.6933 113.62 32.1188 109.431 25.2177C104.653 17.3462 98.8469 13.2445 89.6796 12.3241C86.4226 11.9971 83.4549 13.8367 83.4549 13.8367L83.2578 17.1598Z" fill="#876861"/>
<path d="M96.9484 95.6801L86.5787 108.169L82.5781 116.548L84.6097 146.633L83.846 166.779C83.846 166.779 83.7826 167.988 83.7419 168.763C87.0949 174.479 92.3279 183.4 92.3279 183.4L93.1513 171.883C93.1513 171.883 90.4113 155.502 92.3279 145.29C93.3194 140.007 95.2382 137.385 96.3543 132.127C97.9501 124.61 95.4677 119.775 97.998 112.518C100.613 105.017 109.418 95.6801 109.418 95.6801L112.644 80.8213L111.031 71.1603C111.031 71.1603 110.34 65.212 109.418 61.4994C107.131 52.2835 102.586 48.3118 99.117 39.4722C95.8504 31.1481 93.1956 30.987 91.6315 22.1836C92.6944 31.0484 94.1633 31.7354 95.1333 40.6108C95.6144 45.0116 94.2048 47.8823 96.0425 51.9104C97.207 54.463 100.366 57.6494 100.366 57.6494L105.386 63.0201C105.386 63.0201 109.094 68.261 109.418 72.1418C109.82 76.9441 105.386 83.8052 105.386 83.8052L96.9484 95.6801Z" fill="#8F695E"/>
<path d="M109.427 95.6797C109.427 95.6797 100.622 105.017 98.0069 112.518C95.4767 119.775 97.9591 124.61 96.3633 132.127C95.2472 137.385 93.3284 140.006 92.3369 145.289C90.4202 155.502 93.1603 171.883 93.1603 171.883L92.3369 183.4L101.071 170.271C101.071 170.271 100.066 163.237 100.28 158.72C100.799 147.751 107.383 142.917 109.427 132.127C112.076 118.142 109.427 95.6797 109.427 95.6797Z" fill="#593A38"/>
<path d="M112.657 80.8211L109.431 95.6799C109.431 95.6799 112.08 118.142 109.431 132.127C107.387 142.917 100.803 147.751 100.284 158.72C100.07 163.237 101.075 170.271 101.075 170.271L97.3046 210.563L93.1641 233.933C93.1641 233.933 101.926 215.042 105.399 202.237C109.312 187.803 108.912 179.163 111.044 164.362C113.219 149.266 115.814 140.919 116.421 125.68C117.272 104.303 111.044 71.1602 111.044 71.1602L112.657 80.8211Z" fill="#6C4F54"/>
<path d="M133.902 178.061C133.902 178.061 136.975 165.484 136.322 157.377C135.637 148.874 130.139 136.425 130.139 136.425L126.644 120.762C126.644 120.762 125.533 134.026 125.031 146.633C124.538 159.025 121.801 165.731 120.461 178.061C119.267 189.043 118.31 206.265 118.31 206.265L114.278 233.933L113.619 234.871L105.406 262.944C105.406 262.944 118.489 258.198 120.461 254.349C122.432 250.498 126.429 242.208 126.644 239.844C126.859 237.479 125.658 225.069 125.031 219.16C125.031 219.16 124.121 209.759 125.031 203.848C126.335 195.375 133.022 183.4 133.022 183.4L133.902 178.061Z" fill="#71565C"/>
<path d="M133.885 229.368C133.885 229.368 129.549 212.098 130.121 200.896C130.475 193.981 133.005 183.402 133.005 183.402C133.005 183.402 126.318 195.377 125.014 203.851C124.104 209.761 125.014 219.162 125.014 219.162C125.641 225.071 126.842 237.482 126.627 239.846L125.014 266.44C125.014 266.44 130.701 260.563 133.005 255.962C136.445 249.094 136.573 236.622 136.573 236.622L133.885 229.368Z" fill="#3E2C3C"/>
<path d="M97.3247 92.1494L96.9609 95.6791L105.398 83.8042C105.398 83.8042 109.832 76.943 109.431 72.1408C109.106 68.26 105.398 63.0191 105.398 63.0191L100.379 57.6484L100.85 70.444C100.85 70.444 100.85 73.8571 100.85 76.044C99.4406 80.5247 97.2412 87.5174 97.2412 87.5174L97.3247 92.1494Z" fill="#7F4843"/>
<path d="M90.5268 202.232C90.5268 202.232 92.8875 212.981 90.5268 219.155C88.7572 223.783 86.2669 225.646 82.987 229.361C80.2056 232.512 75.2891 236.884 75.2891 236.884C75.2891 236.884 86.0097 232.817 90.5268 227.481C95.1282 222.046 97.3045 210.558 97.3045 210.558L92.3405 183.395C92.3405 183.395 87.1075 174.474 83.7545 168.758C83.4547 174.474 82.987 183.395 82.987 183.395L90.5268 202.232Z" fill="#6C4D4C"/>
<path d="M92.3281 183.402L97.2921 210.565L101.063 170.273L92.3281 183.402Z" fill="#593A38"/>
</svg>
