<svg width="201" height="201" viewBox="0 0 201 201" fill="none" xmlns="http://www.w3.org/2000/svg">
<g clip-path="url(#clip0_4234_382)">
<path d="M119.078 188.516C118.648 188.516 118.242 188.313 117.984 187.969L117.665 189.109C117.57 189.283 117.697 189.496 117.895 189.496H118.509C118.688 189.496 118.859 189.419 118.978 189.286L119.663 188.516H119.078Z" fill="#694521"/>
<path d="M116.391 189.108L114.962 188.606C114.807 188.552 114.703 188.405 114.703 188.242L114.044 189.254C113.945 189.405 113.926 189.595 113.992 189.763C114.065 189.951 114.234 190.085 114.435 190.113L114.739 190.155C115.078 190.203 115.419 190.088 115.659 189.845L116.391 189.108Z" fill="#694521"/>
<path d="M113.519 188.514L112.446 188.762C112.371 188.779 112.294 188.788 112.217 188.788C111.816 188.788 111.453 188.552 111.29 188.185L111.06 187.668L110.706 187.951C110.477 188.134 110.344 188.413 110.344 188.706C110.344 188.962 110.446 189.208 110.627 189.387C110.865 189.623 111.209 189.716 111.533 189.634L111.83 189.559C112.001 189.516 112.163 189.443 112.309 189.343L113.519 188.514Z" fill="#694521"/>
<ellipse cx="98.0469" cy="37.959" rx="15.6953" ry="22.3145" fill="#DEB888"/>
<path d="M89.493 74.1453C87.4557 72.4534 85.2646 69.4099 84.2064 67.8527C83.8345 67.3054 83.11 67.1126 82.5234 67.4188C82.5234 67.4188 83.4679 70.1905 84.5024 71.7252C85.8354 73.7027 86.8183 74.7515 88.6497 76.2791C90.5617 77.8739 91.9422 78.5925 93.9955 79.6613C94.2086 79.7722 94.4289 79.8869 94.6578 80.0067C94.7623 80.0614 94.865 80.1153 94.9663 80.1684C97.4526 81.4719 99.0444 82.3064 101.924 82.5821C102.81 82.667 103.894 82.6063 104.88 82.5016C106.752 82.3031 108.54 81.6682 110.239 80.8593C112.132 79.9584 113.895 78.8063 115.479 77.4343L117.174 75.967L124.236 68.4404C122.646 67.7858 120.819 68.3348 119.789 69.7116C119.286 70.3845 118.729 71.1042 118.2 71.7341C118.093 71.861 117.917 72.0626 117.818 72.1764C117.768 72.2334 117.718 72.2901 117.667 72.3466C117.5 72.5345 117.095 72.9881 116.881 73.2271C115.069 75.2507 113.74 76.6371 111.151 78.1475C108.213 79.8617 106.304 81.2261 102.911 80.9726C100.118 80.7639 98.1214 79.8563 95.6174 78.6016C92.8546 77.2173 91.8704 76.1195 89.493 74.1453Z" fill="#292929"/>
<path d="M143.412 136.663C144.325 136.578 145.19 136.215 145.89 135.623L146.413 135.18C147.317 134.415 147.742 133.224 147.526 132.059L123.038 135.238L121.508 138.416H123.823H124.568L127.725 138.122L135.935 137.358L143.412 136.663Z" fill="#1B1B1B"/>
<path d="M54.9505 124.676C54.9061 124.888 54.8265 125.091 54.715 125.277C54.0763 126.341 54.5873 127.723 55.7647 128.116L62.033 130.205L71.4317 133.338L73.2468 133.943L71.9518 129.47L55.159 123.68L54.9505 124.676Z" fill="#1B1B1B"/>
<path d="M62.0312 130.203L63.0912 133.941L71.4299 133.336L62.0312 130.203Z" fill="#292929"/>
<path d="M135.054 144.111C135.639 142.008 135.936 139.836 135.936 137.654V137.355L127.727 138.119L129.713 138.413C130.468 138.616 131.182 138.946 131.827 139.388L132.717 139.999L134.049 141.094C134.199 141.216 134.333 141.356 134.451 141.509C134.753 141.903 134.932 142.377 134.967 142.871L135.054 144.111Z" fill="#292929"/>
<path d="M81.9313 186.216C82.5153 186.76 82.9043 187.481 83.0384 188.267L85.3606 188.523C86.9529 188.699 88.5568 188.746 90.1567 188.666L98.0585 188.267L103.303 187.547L108.547 186.826H111.83L112.125 186.334C112.565 185.601 112.906 184.814 113.141 183.992C113.39 183.119 113.517 182.216 113.517 181.308V179.621L113.462 180.07C113.318 181.248 112.933 182.383 112.331 183.406L111.817 184.072C111.645 184.295 111.431 184.482 111.187 184.623L110.901 184.79C110.429 185.063 109.85 185.075 109.367 184.82L108.775 184.409C107.903 184.95 106.927 185.302 105.91 185.442L95.8697 186.826H87.0233L86.6369 186.789C85.1543 186.647 83.7628 186.009 82.6866 184.98C82.6866 184.98 81.2669 183.822 80.8325 182.755C80.5039 181.947 80.1506 181.346 79.9143 180.986C79.7718 180.769 79.4768 180.743 79.2837 180.916C79.1877 181.002 79.1328 181.125 79.1328 181.254V182.113C79.1328 182.643 79.31 183.158 79.6363 183.576L80.7923 185.057C80.9793 185.297 81.1849 185.521 81.4074 185.728L81.9313 186.216Z" fill="#1B1B1B"/>
<path d="M127.236 169.02L126.672 171.462C126.558 171.958 126.392 172.439 126.177 172.9C125.823 173.658 125.603 174.472 125.526 175.305L125.365 177.048C125.32 177.535 125.237 178.017 125.116 178.491C124.925 179.244 124.828 180.018 124.828 180.795V181.122C124.828 181.157 124.828 181.193 124.827 181.228C124.822 181.434 124.791 182.205 124.618 182.68C124.375 183.347 124.053 183.987 123.873 184.673L123.727 185.234L124.828 184.824C126.081 184.316 127.223 183.571 128.191 182.628L129.38 181.469L129.497 174.514C129.53 172.545 129.37 170.578 129.017 168.641L128.412 165.312L127.236 169.02Z" fill="#292929"/>
<path d="M123.724 185.23L122.545 186.826L121.906 187.667C123.167 187.264 124.318 186.578 125.272 185.662L125.484 185.458L125.628 185.348C126.085 184.998 126.596 184.725 127.141 184.539L128.112 184.208C128.412 184.106 128.678 183.922 128.879 183.677C129.095 183.414 129.227 183.091 129.259 182.752L129.378 181.465L128.188 182.624C127.22 183.567 126.078 184.312 124.825 184.82L123.724 185.23Z" fill="#171616"/>
<path d="M65.9458 76.7344L63.3566 84.5035L55.1562 123.68L71.949 129.47L73.244 133.943V110.61C73.244 108.717 73.0647 106.828 72.7087 104.968L70.4523 93.1848L68.7623 87.0157L65.9458 76.7344Z" fill="#292929"/>
<path d="M147.527 132.057L138.695 84.5017L137.4 80.6172L129.158 102.282C128.768 103.307 128.299 104.3 127.755 105.253L127.308 106.034C126.652 107.181 126.156 108.412 125.833 109.692L123.824 117.656C123.303 119.721 123.039 121.842 123.039 123.972V135.236L147.527 132.057Z" fill="#292929"/>
<path d="M77.4255 172.933C78.2791 173.615 79.0525 174.393 79.731 175.25L79.8621 175.415L80.4787 138.122L77.7504 110.916L76.092 101.931C75.2224 97.2194 73.237 92.7848 70.302 88.998L68.7656 87.0156L70.4556 93.1847L72.712 104.968C73.068 106.828 73.2473 108.717 73.2473 110.61V133.943L71.4322 133.338L72.9262 137.491C73.425 138.878 73.7513 140.321 73.8979 141.787C73.9931 142.739 74.0122 143.697 73.9549 144.652L73.6772 149.281L74.0807 166.057C74.0946 166.635 74.1597 167.211 74.2752 167.779L74.4312 168.544C74.6527 169.631 75.1405 170.647 75.8508 171.499C76.1392 171.845 76.4617 172.161 76.8135 172.443L77.4255 172.933Z" fill="#1E1E1E"/>
<path d="M121.511 138.415L123.041 135.237V123.973C123.041 121.843 123.305 119.722 123.826 117.657C121.89 116.024 118.956 117.613 119.265 120.127L121.511 138.415Z" fill="#1E1E1E"/>
<path fill-rule="evenodd" clip-rule="evenodd" d="M65.9453 76.7341L73.2435 72.2611L82.5191 67.418C82.5191 67.418 83.4636 70.1897 84.4981 71.7244C85.8311 73.7019 86.814 74.7507 88.6454 76.2783C90.5574 77.8731 91.9379 78.5917 93.9912 79.6605C94.2043 79.7714 94.4246 79.8861 94.6535 80.0059C94.758 80.0606 94.8607 80.1145 94.962 80.1676C97.4483 81.4711 99.0401 82.3056 101.92 82.5813C102.806 82.6662 103.889 82.6055 104.876 82.5008C106.748 82.3023 108.535 81.6674 110.235 80.8585C112.128 79.9576 113.89 78.8055 115.475 77.4335L117.17 75.9662L124.232 68.4396C124.232 68.4396 127.586 69.4879 129.51 70.6131C130.694 71.3051 131.957 72.3893 133.058 73.4542L127.997 89.3353C125.903 95.9046 125.166 102.831 125.83 109.694L123.82 117.658C121.884 116.025 118.95 117.614 119.259 120.128L121.506 138.416L122.498 151.535L120.583 161.339L118.428 169.112C118.315 169.522 118.157 169.919 117.959 170.296L117.7 170.79C117.437 171.292 117.06 171.725 116.599 172.055C116.458 172.156 116.325 172.267 116.2 172.387L115.458 173.099C114.802 173.729 114.194 174.408 113.641 175.13L112.713 176.341C112.458 176.674 112.241 177.035 112.066 177.417L112.045 177.462C111.901 177.778 111.788 178.108 111.71 178.446C111.606 178.895 111.443 179.328 111.224 179.733L110.642 180.81L109.365 183.227L108.772 184.412C107.901 184.953 106.925 185.305 105.908 185.445L95.8675 186.829H87.0211L86.6347 186.792C85.1521 186.65 83.7606 186.012 82.6844 184.983C83.0506 184.923 83.3175 184.604 83.3022 184.233C83.2731 183.528 83.2025 182.422 83.0362 181.845C83.0111 181.758 82.9876 181.681 82.9657 181.612C82.8569 181.271 82.6796 180.958 82.499 180.65L82.0412 179.867C81.6532 179.203 81.3283 178.504 81.071 177.78L79.8583 175.415L80.4749 138.122L77.7466 110.916L76.0882 101.931C75.2186 97.2192 73.2332 92.7846 70.2982 88.9978L68.7618 87.0154L65.9453 76.7341Z" fill="#292929"/>
<path d="M136.103 76.733C136.103 76.733 134.779 75.1167 133.059 73.4531L127.998 89.3342C125.904 95.9035 125.166 102.83 125.83 109.693C126.153 108.412 126.65 107.181 127.305 106.035L127.752 105.253C128.296 104.301 128.766 103.307 129.156 102.282L137.397 80.6176L136.103 76.733Z" fill="#1E1E1E"/>
<path d="M63.0912 133.941L62.6495 137.946C62.4409 139.838 62.4128 141.745 62.5655 143.642L62.9077 147.893C63.0299 149.41 63.2672 150.915 63.6178 152.396L65.9469 162.235L66.5717 165.768C66.7506 166.78 66.8406 167.805 66.8406 168.832C66.8406 170.618 67.1125 172.394 67.6469 174.098L67.7932 174.564L68.7634 178.688L68.8221 178.886C69.2 180.161 69.7487 181.38 70.4534 182.508L70.9668 183.381C71.2215 183.815 71.6222 184.143 72.097 184.308C72.3554 184.397 72.5939 184.536 72.7994 184.717L74.6479 186.339L76.1891 187.566L77.2908 188.524C77.5937 188.787 77.9378 188.999 78.3094 189.151L78.6634 189.295C79.2411 189.531 79.8839 189.554 80.4765 189.358L80.4154 189.188C80.2603 188.755 80.0184 188.359 79.7044 188.023C79.575 187.885 79.4341 187.757 79.2832 187.642L77.8869 186.58C77.7948 186.51 77.7107 186.429 77.6364 186.341L77.1505 185.76C77.1246 185.729 77.1156 185.687 77.1267 185.648C77.1538 185.552 77.2782 185.528 77.3399 185.606L78.031 186.481C78.0776 186.54 78.1336 186.591 78.1966 186.632L80.7088 188.268L81.2301 188.721C81.4359 188.901 81.7298 188.936 81.9727 188.812L83.0378 188.268C82.9037 187.482 82.5147 186.761 81.9307 186.217L81.4068 185.729C81.1843 185.522 80.9787 185.298 80.7917 185.058L79.6357 183.577C79.3094 183.159 79.1322 182.644 79.1322 182.114V181.255C79.1322 181.126 79.1871 181.003 79.2831 180.917C79.4762 180.744 79.7712 180.77 79.9137 180.987C80.15 181.347 80.5033 181.948 80.8319 182.756C81.2663 183.823 82.686 184.981 82.686 184.981C83.0522 184.921 83.3191 184.602 83.3038 184.231C83.2747 183.526 83.2041 182.42 83.0378 181.843C83.0127 181.756 82.9892 181.679 82.9673 181.61C82.8585 181.269 82.6812 180.956 82.5006 180.648L82.0428 179.865C81.6548 179.201 81.3299 178.502 81.0726 177.778L79.8599 175.413L79.7288 175.248C79.0503 174.391 78.2769 173.613 77.4233 172.931L76.8113 172.441C76.4595 172.159 76.137 171.843 75.8486 171.497C75.1383 170.645 74.6505 169.629 74.429 168.542L74.273 167.777C74.1575 167.209 74.0924 166.633 74.0785 166.055L73.675 149.279L73.9527 144.65C74.01 143.695 73.9909 142.737 73.8957 141.785C73.7491 140.319 73.4228 138.876 72.924 137.489L71.43 133.336L63.0912 133.941Z" fill="#F9CB92"/>
<path d="M124.567 138.415H123.821L123.274 144.374L122.499 151.534L120.584 161.338L118.429 169.111C118.316 169.521 118.158 169.918 117.961 170.295L117.701 170.789C117.438 171.291 117.061 171.724 116.601 172.054C116.459 172.155 116.326 172.266 116.201 172.386L115.459 173.098C114.803 173.728 114.196 174.407 113.642 175.129L112.715 176.34C112.459 176.673 112.242 177.034 112.067 177.416L112.046 177.461C111.902 177.777 111.789 178.107 111.711 178.445C111.608 178.894 111.444 179.327 111.225 179.732L110.643 180.809L109.366 183.226L108.773 184.411L109.366 184.822C109.848 185.077 110.428 185.065 110.9 184.792L111.186 184.625C111.43 184.484 111.644 184.297 111.816 184.074L112.33 183.408C112.932 182.385 113.317 181.25 113.461 180.072L113.516 179.623V181.31C113.516 182.218 113.389 183.121 113.14 183.994C112.905 184.816 112.564 185.603 112.124 186.336L111.829 186.828L111.099 187.477C111.045 187.525 111.028 187.603 111.057 187.669L111.287 188.186C111.45 188.553 111.814 188.789 112.215 188.789C112.291 188.789 112.368 188.78 112.443 188.763L113.516 188.515L114.109 188.242L115.464 185.51C115.544 185.349 115.727 185.268 115.9 185.318C116.142 185.388 116.245 185.673 116.105 185.882L114.701 187.968V188.242C114.701 188.405 114.805 188.552 114.96 188.606L116.389 189.108H117.238L118.562 185.62C118.6 185.52 118.685 185.444 118.789 185.418C119.07 185.348 119.297 185.649 119.154 185.899L118.623 186.828L117.985 187.968C118.243 188.312 118.648 188.515 119.079 188.515H119.664L119.801 188.333C120.321 187.644 120.678 186.848 120.846 186.002L121.006 185.2C121.055 184.95 121.156 184.714 121.302 184.506L121.965 183.559C122.1 183.367 122.354 183.301 122.565 183.403C122.822 183.527 122.913 183.847 122.761 184.088L122.14 185.073L121.678 185.916L120.949 187.558L121.351 187.784C121.538 187.889 121.775 187.84 121.906 187.669L122.545 186.828L123.723 185.232L123.87 184.671C124.05 183.985 124.372 183.345 124.615 182.678C124.788 182.203 124.819 181.432 124.824 181.226C124.825 181.191 124.825 181.156 124.825 181.121V180.793C124.825 180.016 124.922 179.242 125.113 178.489C125.233 178.015 125.317 177.533 125.362 177.046L125.523 175.303C125.6 174.47 125.82 173.657 126.174 172.899C126.389 172.438 126.555 171.956 126.669 171.46L127.233 169.018L128.409 165.311L134.466 146.216L135.051 144.113L134.964 142.873C134.93 142.379 134.75 141.905 134.449 141.511C134.331 141.358 134.196 141.218 134.047 141.096L132.714 140.001L131.824 139.39C131.18 138.948 130.465 138.618 129.711 138.415L127.724 138.121L124.567 138.415Z" fill="#F9CB92"/>
<path d="M114.702 187.969L116.105 185.883C116.246 185.674 116.142 185.389 115.901 185.319C115.728 185.269 115.545 185.35 115.465 185.511L114.109 188.243L114.702 187.969Z" fill="#B47238"/>
<path d="M117.981 187.967L118.62 186.827L119.15 185.898C119.294 185.648 119.066 185.347 118.786 185.417C118.682 185.443 118.597 185.519 118.559 185.619L117.234 189.107H117.662L117.981 187.967Z" fill="#B47238"/>
<path d="M120.949 187.558L121.679 185.916L122.141 185.073L122.761 184.088C122.914 183.847 122.822 183.527 122.566 183.403C122.354 183.301 122.1 183.367 121.966 183.559L121.303 184.506C121.157 184.714 121.056 184.95 121.006 185.2L120.847 186.002C120.678 186.848 120.321 187.644 119.802 188.333L119.664 188.515C119.959 188.515 120.239 188.386 120.431 188.163L120.949 187.558Z" fill="#B47238"/>
<path d="M77.3429 185.605C77.2812 185.527 77.1568 185.551 77.1297 185.647C77.1186 185.686 77.1276 185.728 77.1535 185.759L77.6394 186.34C77.7137 186.428 77.7978 186.509 77.8899 186.579L79.2862 187.641C79.4371 187.756 79.578 187.884 79.7074 188.022C80.0214 188.358 80.2633 188.754 80.4184 189.187L80.4795 189.357L80.7843 189.183C80.9746 189.074 81.1302 188.914 81.2331 188.72L80.7118 188.267L78.1996 186.631C78.1366 186.59 78.0806 186.539 78.034 186.48L77.3429 185.605Z" fill="#4A2312"/>
<path d="M98.9251 47.5016L95.2969 48.4243C95.2969 48.4243 98.1565 49.0768 100.014 49.043C101.866 49.0093 102.93 48.8306 104.691 48.2578C104.069 48.1326 102.115 47.5134 101.49 47.405C100.864 47.2967 101.001 47.5527 100.368 47.5016C99.8063 47.4562 100.204 47.2144 98.9251 47.5016Z" fill="#7B262B"/>
<path d="M97.5946 46.6297C96.2069 47.2697 94.6719 48.2551 94.6719 48.2551L95.3022 48.4216L98.9304 47.4989C100.209 47.2117 99.8116 47.4535 100.373 47.4989C101.006 47.55 100.87 47.294 101.495 47.4023C102.12 47.5107 104.074 48.1299 104.696 48.2551C103.85 47.2371 102.9 46.6297 101.621 46.2883C100.89 46.0934 100.626 46.3876 99.8735 46.458C98.8157 46.5568 98.5593 46.1847 97.5946 46.6297Z" fill="#A35A4C"/>
<path d="M98.4814 40.5896C98.0062 40.2502 97.1642 40.7291 97.1564 41.313C97.1499 41.7911 97.435 42.0889 97.9127 42.0683C98.3729 42.0485 98.6294 41.6178 98.6634 41.1584C98.6887 40.8161 98.6634 40.7197 98.4814 40.5896Z" fill="#4A191A"/>
<path d="M101.796 40.7379C101.561 40.7092 101.392 40.7224 101.281 40.9314C101.176 41.1273 101.281 42.0688 101.281 42.0688C101.281 42.0688 101.348 42.1861 101.618 42.248C101.896 42.3117 102.227 42.1512 102.258 41.8216C102.27 41.6911 102.251 41.4996 102.204 41.3135C102.19 41.261 102.175 41.209 102.157 41.1589C102.078 40.9397 101.957 40.7576 101.796 40.7379Z" fill="#49191A"/>
<path d="M96.0965 30.239C96.7863 30.2565 97.8195 29.8474 97.8195 29.8474L97.1148 27.028C97.1148 27.028 94.0911 26.2454 92.1811 26.5582C91.0339 26.746 90.6426 27.9447 89.872 28.3421C89.855 28.4365 89.8378 28.5301 89.8203 28.6231C90.7685 28.6397 91.8592 28.2394 93.2772 28.751C94.4483 29.1735 94.8519 30.2075 96.0965 30.239Z" fill="#925B46"/>
<path fill-rule="evenodd" clip-rule="evenodd" d="M92.7991 31.9026C92.3131 31.8973 91.7633 32.0666 91.258 32.2861C91.258 32.2861 91.3245 32.3112 91.0745 32.5302C91.0745 32.5302 90.9448 32.8475 90.9935 33.0452C91.0432 33.247 90.9609 33.6568 90.9609 33.6568C91.4868 33.9337 92.2039 34.2565 92.7991 34.3271C93.2098 34.3758 93.7095 34.322 94.1637 34.239C94.1637 34.239 95.3291 33.7331 95.4194 33.278C95.5055 32.8441 94.5895 32.4375 94.5895 32.4375C94.0263 32.1571 93.3691 31.9088 92.7991 31.9026ZM91.8101 32.9173C91.8101 31.9668 93.1529 31.8906 93.1529 31.8906C93.1529 31.8906 94.4066 32.0084 94.4066 32.7091C94.4066 33.3535 93.9376 33.8779 93.2966 33.9439C92.5948 34.0162 91.8101 33.7134 91.8101 32.9173Z" fill="#B79685"/>
<path fill-rule="evenodd" clip-rule="evenodd" d="M93.1475 31.8906C93.1475 31.8906 91.8047 31.9668 91.8047 32.9173C91.8047 33.7134 92.5894 34.0162 93.2912 33.9439C93.9322 33.8779 94.4012 33.3535 94.4012 32.7091C94.4012 32.0084 93.1475 31.8906 93.1475 31.8906ZM93.1475 32.5302C93.3985 32.5166 93.668 32.5502 93.7352 32.7924C93.8149 33.0792 93.445 33.2668 93.1475 33.278C92.8771 33.2881 92.5645 33.1877 92.5559 32.9173C92.5537 32.8481 92.5724 32.7902 92.6061 32.7421C92.5527 32.7124 92.5242 32.6706 92.5219 32.5814C92.5165 32.3808 92.8665 32.4209 93.0605 32.5376C93.0897 32.5342 93.1189 32.5317 93.1475 32.5302Z" fill="#86564B"/>
<path d="M93.742 32.7921C93.6748 32.5499 93.4053 32.5163 93.1543 32.5299C93.1257 32.5314 93.0965 32.5339 93.0673 32.5373C93.1543 32.5896 93.2137 32.5664 93.1543 32.7088C93.0913 32.8601 92.8984 32.8442 92.7431 32.7921L92.7301 32.7877C92.6829 32.7719 92.6437 32.7589 92.6129 32.7418C92.5792 32.7899 92.5605 32.8478 92.5627 32.917C92.5713 33.1874 92.8839 33.2878 93.1543 33.2777C93.4518 33.2665 93.8217 33.0789 93.742 32.7921Z" fill="#582C2B"/>
<path d="M92.7396 32.7939C92.8949 32.846 93.0878 32.8619 93.1508 32.7106C93.2102 32.5682 93.1508 32.5914 93.0638 32.5391C93.0535 32.5403 93.0431 32.5416 93.0328 32.5431C92.8611 32.5672 92.6913 32.6267 92.6094 32.7436C92.6402 32.7607 92.6794 32.7737 92.7266 32.7895L92.7396 32.7939Z" fill="#B5AFAF"/>
<path d="M93.0621 32.5385C92.8681 32.4218 92.5181 32.3817 92.5235 32.5823C92.5258 32.6715 92.5543 32.7133 92.6077 32.743C92.6896 32.6261 92.8594 32.5666 93.0311 32.5425C93.0414 32.541 93.0518 32.5397 93.0621 32.5385Z" fill="#B5AFAF"/>
<path d="M95.4478 33.9168L95.9111 33.2325C95.9111 33.2325 95.3322 32.8071 94.5899 32.4375C94.5899 32.4375 95.5059 32.8441 95.4198 33.278C95.3295 33.7331 94.1641 34.239 94.1641 34.239C94.8592 34.112 95.4478 33.9168 95.4478 33.9168Z" fill="#B1846D"/>
<path d="M96.3778 33.9187L95.9086 33.2344L95.4453 33.9187H96.3778Z" fill="#B1846D"/>
<path d="M90.8837 32.7101C90.7595 32.8359 90.2266 33.2335 90.2266 33.2335C90.2266 33.2335 90.5298 33.4303 90.9621 33.6579C90.9621 33.6579 91.0444 33.248 90.9947 33.0462C90.946 32.8485 91.0757 32.5312 91.0757 32.5312C91.0066 32.5919 90.9403 32.6529 90.8837 32.7101Z" fill="#B1846D"/>
<path d="M89.5859 33.2316H90.22C90.22 33.2316 90.7529 32.834 90.8771 32.7082C90.9337 32.651 91 32.5899 91.0691 32.5293C91.3191 32.3103 91.2526 32.2852 91.2526 32.2852C90.3481 32.6781 89.5859 33.2316 89.5859 33.2316Z" fill="#B1846D"/>
<path d="M94.5156 11.7613L95.6028 15.1252C95.6028 15.1252 97.1953 13.4913 99.0188 13.2635C104.864 12.5332 108.917 15.225 112.604 19.819C116.337 24.4706 116.018 34.7055 116.018 34.7055L115.062 47.4033C115.062 47.4033 118.955 54.5418 118.613 59.4252C118.374 62.8407 117.793 70.9913 117.793 70.9913L119.569 78.955C119.569 78.955 122.362 85.2845 122.71 89.6077C123.042 93.7292 121.481 100.124 121.481 100.124L121.034 102.838C121.034 102.838 119.749 108.217 119.569 111.733C119.278 117.428 121.481 126.209 121.481 126.209L122.847 129.897L124.212 133.584L125.032 144.237C125.032 144.237 129.834 130.52 127.354 122.249C126.387 119.027 124.326 117.763 123.666 114.464C123.133 111.797 123.569 110.217 123.666 107.499C123.851 102.354 125.032 94.3877 125.032 94.3877C125.032 94.3877 128.059 86.0226 128.036 80.4574C128.014 74.9964 125.502 72.2407 125.032 66.8C124.72 63.1938 125.296 61.1413 125.032 57.5314C124.477 49.966 120.662 38.6052 120.662 38.6052C120.662 38.6052 120.366 26.0001 116.018 19.819C113.302 15.9572 111.26 13.8055 107.004 11.7613C104.307 10.4658 102.595 9.38115 99.6204 9.71263C97.4855 9.95059 94.5156 11.7613 94.5156 11.7613Z" fill="#5E423F"/>
<path d="M91.0342 17.4466C85.2013 21.6434 87.0331 27.9233 84.4694 34.6362L85.6974 47.8989L87.4728 60.8768C88.1662 65.945 83.0832 66.1776 82.4196 70.3003C81.6056 75.3579 85.6974 83.0015 85.6974 83.0015L89.7093 90.7861C89.7093 90.7861 87.272 83.1174 87.4728 78.085C87.6259 74.2488 88.2935 72.2954 89.4513 68.4552C93.1464 64.6058 95.2755 61.2162 94.3527 55.9608C93.7956 52.7881 91.8179 51.0999 90.6804 48.0863C89.5412 45.0681 88.5708 40.0994 88.5708 40.0994C88.5708 40.0994 87.6841 37.5784 88.2732 35.1143C88.8524 32.6917 89.4039 30.8598 89.8234 28.6243C89.5309 28.6191 89.7093 28.4341 89.7093 28.4341C89.7093 28.4341 89.5538 28.509 89.8751 28.3433C89.9493 27.9306 90.019 27.5031 90.0836 27.0551C90.4552 24.4778 89.5906 22.4535 91.3145 20.5019C92.5952 19.052 95.7603 18.3168 95.7603 18.3168L95.8604 16.6272L95.6067 15.125C95.6067 15.125 92.6598 16.277 91.0342 17.4466Z" fill="#836358"/>
<path d="M79.9621 50.6848C78.2566 61.1019 77.3672 77.5897 77.3672 77.5897C77.3672 77.5897 79.3427 65.693 81.3278 58.2394C82.4656 53.9673 85.6928 47.8994 85.6928 47.8994L84.4648 34.6367C82.8653 41.0369 81.0279 44.1744 79.9621 50.6848Z" fill="#95756A"/>
<path d="M85.6928 47.8984C85.6928 47.8984 82.4656 53.9663 81.3278 58.2384C79.3427 65.692 77.3672 77.5887 77.3672 77.5887L79.2792 83.4613C79.2792 83.4613 83.3212 90.9157 83.9227 96.1626C84.4286 100.576 83.3234 103.07 82.9667 107.498C82.7175 110.591 82.3494 115.419 82.3494 115.419C82.3494 115.419 86.4546 122.488 86.381 127.438C86.3448 129.877 85.2676 133.583 85.2676 133.583L82.9667 146.285L84.6056 143.28C84.6056 143.28 87.314 138.317 88.6175 134.949C91.4252 127.696 92.5246 115.419 92.5246 115.419C92.5246 115.419 93.0086 110.819 93.6553 104.941C94.3019 99.0636 92.2059 96.1193 89.7047 90.7857L85.6928 83.0011C85.6928 83.0011 81.601 75.3574 82.415 70.2998C83.0786 66.1771 88.1616 65.9445 87.4682 60.8763L85.6928 47.8984Z" fill="#6C4F54"/>
<path d="M79.2829 83.4609C79.2829 83.4609 76.2126 89.9369 76.0057 94.3867C75.7605 99.6587 78.9292 102.232 79.2829 107.498C79.6722 113.293 78.1176 116.488 77.3709 122.248L79.2829 132.218V136.998V143.28L81.3315 136.998V128.53L82.3531 115.419C82.3531 115.419 82.7212 110.591 82.9704 107.498C83.3271 103.07 84.4323 100.576 83.9264 96.1622C83.3249 90.9153 79.2829 83.4609 79.2829 83.4609Z" fill="#4D3C4C"/>
<path d="M77.3692 77.5898C77.3692 77.5898 74.2277 84.06 73.2719 88.5156C72.7864 90.7791 72.737 92.241 72.4647 94.3882C72.78 95.4016 72.9542 95.9705 73.2719 96.9831C74.3121 100.298 75.5514 102.006 76.004 105.451C76.6123 110.081 75.273 112.705 74.6381 117.332C73.7632 123.708 71.9062 133.584 71.9062 133.584L73.2719 144.237C73.2719 144.237 75.4794 139.974 76.004 136.999C76.2365 135.68 76.1966 134.918 76.32 133.584L77.3692 122.249C78.1159 116.489 79.6704 113.294 79.2811 107.499C78.9274 102.233 75.7588 99.6602 76.004 94.3882C76.2109 89.9384 79.2811 83.4624 79.2811 83.4624L77.3692 77.5898Z" fill="#71565C"/>
<path d="M61.7444 129.073C61.7444 132.807 62.3664 133.142 62.4844 135.771C62.5658 137.582 62.4844 140.414 62.4844 140.414C62.4844 140.414 63.9617 138.416 64.6701 137C65.6739 134.994 66.4456 131.537 66.4456 131.537C66.4456 131.537 65.645 124.061 66.4456 119.382C67.1457 115.29 68.8489 110.794 71.0354 107.266C68.6615 110.775 64.9957 115.969 62.4844 119.382C59.0924 123.991 61.7444 126.407 61.7444 129.073Z" fill="#7E6260"/>
<path d="M94.5159 11.7617C94.5159 11.7617 91.1404 13.1764 89.3466 14.6297C85.8564 17.4575 83.3785 24.4628 83.3785 24.4628C83.3785 24.4628 79.5246 32.2471 78.0518 37.5738C75.8907 45.3906 76.6847 50.1581 76.003 58.2394C75.3661 65.7881 74.6371 77.5897 74.6371 77.5897C74.6371 77.5897 73.7185 84.5085 71.9053 88.5155C71.0488 90.4081 70.0508 91.2181 69.3104 93.159C68.1032 96.3236 69.152 98.5074 68.2176 101.763C66.9141 106.305 62.4813 112.416 62.4813 112.416C62.4813 112.416 59.9989 116.004 58.9308 118.561C56.333 124.782 55.7382 129.281 57.5652 135.77C58.6774 139.72 62.4813 145.057 62.4813 145.057V140.413C62.4813 140.413 62.5627 137.581 62.4813 135.77C62.3632 133.141 61.7413 132.806 61.7413 129.072C61.7413 126.406 59.0893 123.99 62.4813 119.381C64.9925 115.968 68.6583 110.774 71.0322 107.265L71.6814 101.763C71.8318 99.6856 72.1334 96.9936 72.4638 94.3881C72.7361 92.2409 72.7855 90.779 73.271 88.5155C74.2268 84.0599 77.3682 77.5897 77.3682 77.5897C77.3682 77.5897 78.2576 61.1019 79.9631 50.6848C81.0289 44.1744 82.8663 41.0369 84.4658 34.6367C87.0295 27.9238 85.1977 21.6439 91.0306 17.4472C92.6562 16.2776 95.6031 15.1256 95.6031 15.1256L94.5159 11.7617Z" fill="#8D7972"/>
<path d="M66.4418 119.38C65.6412 124.059 66.4418 131.535 66.4418 131.535L68.217 140.412L69.3098 133.583C69.3098 133.583 71.4344 124.496 71.9047 118.56C71.9047 118.56 71.9026 107.014 72.1071 106.385C72.3115 105.756 71.5138 104.066 71.6808 101.762L71.0316 107.263C68.8451 110.792 67.1419 115.288 66.4418 119.38Z" fill="#64545E"/>
<path d="M71.9074 133.583C71.9074 133.583 73.7643 123.707 74.6392 117.331C75.2741 112.704 76.6134 110.08 76.0051 105.449C75.5525 102.004 74.3133 100.297 73.2731 96.9816C72.9554 95.969 72.7812 95.4001 72.4659 94.3867C72.1355 96.9922 71.8339 99.6842 71.6835 101.762C71.5165 104.066 72.3142 105.756 72.1098 106.385C71.9053 107.014 71.9074 118.56 71.9074 118.56C71.4371 124.496 69.3125 133.583 69.3125 133.583L70.3127 140.412L71.9074 133.583Z" fill="#4D3C4C"/>
<path d="M79.2815 132.22L77.3695 122.25L76.3203 133.585L77.3695 142.053L79.2815 132.22Z" fill="#3E2C3C"/>
<path d="M82.3497 115.418L81.3281 128.529L82.3497 139.728L85.2679 133.582C85.2679 133.582 86.3451 129.876 86.3813 127.437C86.4549 122.487 82.3497 115.418 82.3497 115.418Z" fill="#3E2C3C"/>
<path d="M89.4512 68.457C88.2934 72.2972 87.6258 74.2506 87.4727 78.0868C87.2719 83.1192 89.7092 90.788 89.7092 90.788C92.2104 96.1216 94.3064 99.0659 93.6598 104.944C93.0131 110.821 92.5291 115.421 92.5291 115.421C92.5291 115.421 94.9522 110.245 95.4212 106.681C95.6171 105.192 95.6225 102.84 95.6225 102.84C95.6225 102.84 94.6225 99.1957 93.6598 96.9843C92.9908 95.4476 92.2925 94.7324 91.7118 93.1603C89.9933 88.5073 92.3531 85.3775 91.7118 80.459C91.0586 75.4486 90.3735 73.4172 89.4512 68.457Z" fill="#3C222B"/>
<path d="M100.792 57.5313C100.054 57.7513 99.6086 57.8283 98.8396 57.8C97.8601 57.764 96.9596 57.5583 96.2011 57.1996C96.2011 57.1996 95.0177 56.6083 94.3516 55.9609L97.4526 64.5885L102.721 58.2389L102.905 56.4443C102.905 56.4443 101.681 57.2659 100.792 57.5313Z" fill="#69403A"/>
<path d="M97.4526 64.5885L94.3516 55.9609L95.4202 68.8485L97.4526 64.5885Z" fill="#3C222B"/>
<path d="M94.3467 55.9609C95.2695 61.2163 93.1404 64.6058 89.4453 68.4552C90.3676 73.4154 91.0527 75.4468 91.7059 80.4572C92.3472 85.3757 89.9874 88.5055 91.7059 93.1585C92.2866 94.7306 92.9849 95.4458 93.6539 96.9825C94.6166 99.1939 95.6166 102.838 95.6166 102.838C95.6166 102.838 95.8542 98.3026 96.0065 95.3963C96.0272 95.0024 96.0594 94.3876 96.0594 94.3876L96.4474 84.1447L95.4153 68.8485L94.3467 55.9609Z" fill="#6C4D4C"/>
<path d="M115.061 47.4031L116.017 34.7053C116.017 34.7053 116.336 24.4704 112.602 19.8189C108.915 15.2249 104.863 12.533 99.0176 13.2633C97.1941 13.4912 95.6016 15.125 95.6016 15.125L95.8553 16.6273C95.8553 16.6273 97.363 15.692 99.0176 15.8582C103.675 16.3262 106.624 18.4116 109.052 22.4137C111.18 25.9224 109.951 28.7566 110.69 32.793C111.357 36.4277 111.356 38.5814 112.602 42.0601C113.377 44.2223 115.061 47.4031 115.061 47.4031Z" fill="#4B2E30"/>
<path d="M95.7578 18.3183C95.7578 18.3183 99.9055 20.2385 100.018 20.8727C100.813 25.3486 102.161 25.4305 103.821 29.6627C105.583 34.157 107.892 36.1763 109.054 40.8619C109.522 42.7495 109.874 45.7738 109.874 45.7738C109.874 45.7738 113.038 62.6244 112.605 73.4934C112.297 81.2412 110.979 85.485 109.874 93.1599C108.79 100.686 108.994 105.078 107.006 112.417C105.242 118.927 100.79 128.532 100.79 128.532C100.79 128.532 101.201 132.974 100.79 135.771C100.23 139.584 97.4512 145.058 97.4512 145.058C97.4512 145.058 100.172 143.406 101.679 142.053C104.259 139.737 104.974 137.76 107.006 134.951C108.668 132.654 111.178 129.009 111.178 129.009L111.513 128.532L113.561 114.465C113.561 114.465 114.047 105.709 114.654 100.125C115.335 93.8562 116.725 90.4468 116.975 84.1461C117.23 77.7367 117.795 70.9926 117.795 70.9926C117.795 70.9926 118.375 62.8419 118.614 59.4264C118.956 54.543 115.063 47.4045 115.063 47.4045C115.063 47.4045 113.38 44.2237 112.605 42.0615C111.359 38.5828 111.359 36.4291 110.693 32.7944C109.953 28.758 111.182 25.9238 109.054 22.4151C106.627 18.413 103.677 16.3276 99.0202 15.8596C97.3656 15.6934 95.8579 16.6287 95.8579 16.6287L95.7578 18.3183Z" fill="#876861"/>
<path d="M102.714 58.2387L97.4465 64.5883L95.4141 68.8483L96.4462 84.1445L96.0582 94.3874C96.0582 94.3874 96.026 95.0022 96.0053 95.3961C97.7087 98.3024 100.367 102.838 100.367 102.838L100.785 96.9823C100.785 96.9823 99.3935 88.6538 100.367 83.4616C100.871 80.7756 101.846 79.4428 102.413 76.7695C103.223 72.9474 101.962 70.4893 103.248 66.7997C104.576 62.9858 109.049 58.2387 109.049 58.2387L110.688 50.6841L109.869 45.7722C109.869 45.7722 109.518 42.7479 109.049 40.8603C107.888 36.1747 105.579 34.1554 103.816 29.6611C102.157 25.4289 100.808 25.347 100.013 20.8711C100.553 25.3782 101.3 25.7275 101.792 30.24C102.037 32.4775 101.321 33.937 102.254 35.985C102.846 37.2828 104.451 38.9029 104.451 38.9029L107.001 41.6335C107.001 41.6335 108.885 44.2981 109.049 46.2712C109.253 48.7128 107.001 52.2012 107.001 52.2012L102.714 58.2387Z" fill="#8F695E"/>
<path d="M109.052 58.2383C109.052 58.2383 104.578 62.9854 103.25 66.7993C101.964 70.4889 103.225 72.947 102.415 76.7691C101.848 79.4424 100.873 80.7752 100.369 83.4612C99.3955 88.6534 100.788 96.9819 100.788 96.9819L100.369 102.838L104.807 96.1625C104.807 96.1625 104.296 92.5861 104.405 90.2898C104.668 84.7127 108.013 82.255 109.052 76.7691C110.397 69.6586 109.052 58.2383 109.052 58.2383Z" fill="#593A38"/>
<path d="M110.692 50.6853L109.053 58.2399C109.053 58.2399 110.399 69.6602 109.053 76.7707C108.015 82.2566 104.67 84.7143 104.406 90.2914C104.298 92.5877 104.808 96.1641 104.808 96.1641L102.893 116.65L100.789 128.532C100.789 128.532 105.24 118.927 107.004 112.417C108.993 105.078 108.789 100.685 109.872 93.1595C110.977 85.4846 112.296 81.2408 112.604 73.493C113.037 62.624 109.872 45.7734 109.872 45.7734L110.692 50.6853Z" fill="#6C4F54"/>
<path d="M121.485 100.125C121.485 100.125 123.045 93.73 122.714 89.6085C122.366 85.2853 119.573 78.9559 119.573 78.9559L117.797 70.9922C117.797 70.9922 117.233 77.7363 116.978 84.1457C116.727 90.4464 115.337 93.8558 114.656 100.125C114.049 105.708 113.563 114.465 113.563 114.465L111.515 128.532L111.18 129.009L107.008 143.282C107.008 143.282 113.654 140.869 114.656 138.912C115.657 136.954 117.688 132.739 117.797 131.537C117.906 130.335 117.296 124.025 116.978 121.021C116.978 121.021 116.516 116.241 116.978 113.236C117.64 108.928 121.037 102.839 121.037 102.839L121.485 100.125Z" fill="#71565C"/>
<path d="M121.478 126.21C121.478 126.21 119.275 117.429 119.566 111.734C119.746 108.218 121.031 102.84 121.031 102.84C121.031 102.84 117.634 108.928 116.971 113.236C116.509 116.241 116.971 121.021 116.971 121.021C117.29 124.025 117.9 130.335 117.79 131.537L116.971 145.058C116.971 145.058 119.86 142.07 121.031 139.731C122.778 136.239 122.844 129.898 122.844 129.898L121.478 126.21Z" fill="#3E2C3C"/>
<path d="M102.904 56.4435L102.719 58.2381L107.005 52.2006C107.005 52.2006 109.258 48.7122 109.054 46.2706C108.889 44.2975 107.005 41.6329 107.005 41.6329L104.455 38.9023L104.694 45.4079C104.694 45.4079 104.694 47.1432 104.694 48.2551C103.978 50.5332 102.861 54.0885 102.861 54.0885L102.904 56.4435Z" fill="#7F4843"/>
<path d="M99.452 112.414C99.452 112.414 100.651 117.879 99.452 121.018C98.553 123.371 97.2879 124.318 95.6216 126.207C94.2086 127.809 91.7109 130.032 91.7109 130.032C91.7109 130.032 97.1572 127.964 99.452 125.251C101.79 122.488 102.895 116.647 102.895 116.647L100.373 102.836C100.373 102.836 97.7149 98.3008 96.0115 95.3945C95.8592 98.3008 95.6216 102.836 95.6216 102.836L99.452 112.414Z" fill="#6C4D4C"/>
<path d="M100.367 102.839L102.889 116.65L104.804 96.1641L100.367 102.839Z" fill="#593A38"/>
</g>
<defs>
<clipPath id="clip0_4234_382">
<rect width="95" height="181" fill="white" transform="translate(53.4609 9.59375)"/>
</clipPath>
</defs>
</svg>
