<svg width="95" height="180" viewBox="0 0 95 180" fill="none" xmlns="http://www.w3.org/2000/svg">
<ellipse cx="44.5859" cy="28.3652" rx="15.6953" ry="22.3145" fill="#DEB888"/>
<path d="M36.0321 64.5516C33.9948 62.8597 31.8037 59.8162 30.7455 58.259C30.3736 57.7117 29.6491 57.5189 29.0625 57.8251C29.0625 57.8251 30.007 60.5968 31.0415 62.1315C32.3745 64.109 33.3574 65.1578 35.1888 66.6854C37.1008 68.2802 38.4813 68.9988 40.5346 70.0676C40.7477 70.1785 40.968 70.2932 41.1969 70.413C41.3014 70.4677 41.4041 70.5216 41.5054 70.5747C43.9917 71.8782 45.5835 72.7127 48.463 72.9884C49.3495 73.0733 50.4327 73.0126 51.4193 72.9079C53.291 72.7094 55.0788 72.0745 56.7783 71.2656C58.6711 70.3647 60.4336 69.2126 62.0184 67.8406L63.7132 66.3733L70.7749 58.8467C69.1852 58.1921 67.358 58.7411 66.3284 60.1179C65.8253 60.7908 65.2681 61.5105 64.7387 62.1404C64.632 62.2673 64.4565 62.4689 64.357 62.5827C64.3071 62.6397 64.2569 62.6964 64.2064 62.7529C64.0388 62.9408 63.634 63.3944 63.42 63.6334C61.6078 65.657 60.2792 67.0434 57.6902 68.5538C54.7519 70.268 52.8426 71.6324 49.4503 71.3789C46.6573 71.1702 44.6605 70.2626 42.1565 69.0079C39.3937 67.6236 38.4095 66.5258 36.0321 64.5516Z" fill="#292929"/>
<path d="M89.9514 127.069C90.8644 126.984 91.7294 126.621 92.4294 126.029L92.9522 125.586C93.8564 124.821 94.2811 123.63 94.0648 122.465L69.5772 125.644L68.0469 128.822H70.3617H71.1074L74.2644 128.528L82.4742 127.764L89.9514 127.069Z" fill="#1B1B1B"/>
<path d="M1.48953 115.082C1.44515 115.294 1.36556 115.497 1.25407 115.683C0.615344 116.747 1.12641 118.129 2.30381 118.522L8.57205 120.611L17.9707 123.744L19.7858 124.349L18.4908 119.876L1.69806 114.086L1.48953 115.082Z" fill="#1B1B1B"/>
<path d="M8.57031 120.609L9.63022 124.347L17.969 123.742L8.57031 120.609Z" fill="#292929"/>
<path d="M81.5929 134.518C82.1785 132.415 82.4754 130.243 82.4754 128.061V127.762L74.2656 128.526L76.2521 128.82C77.0068 129.023 77.7215 129.353 78.3658 129.795L79.2557 130.406L80.5883 131.501C80.7376 131.623 80.8725 131.763 80.9901 131.916C81.2918 132.31 81.4712 132.784 81.5059 133.278L81.5929 134.518Z" fill="#292929"/>
<path d="M28.4704 176.622C29.0544 177.166 29.4434 177.887 29.5775 178.673L31.8997 178.929C33.492 179.105 35.0959 179.152 36.6958 179.072L44.5976 178.673L49.8416 177.953L55.0856 177.232H58.3688L58.664 176.74C59.1037 176.007 59.4453 175.22 59.6802 174.398C59.9295 173.525 60.056 172.622 60.056 171.714V170.027L60.001 170.476C59.8568 171.654 59.472 172.789 58.8704 173.812L58.356 174.478C58.1838 174.701 57.97 174.888 57.7264 175.029L57.4402 175.196C56.9683 175.469 56.3886 175.481 55.9064 175.226L55.3136 174.815C54.4418 175.356 53.4659 175.708 52.4494 175.848L42.4088 177.232H33.5624L33.176 177.195C31.6934 177.053 30.3019 176.415 29.2257 175.386C29.2257 175.386 27.806 174.228 27.3716 173.161C27.043 172.353 26.6897 171.752 26.4534 171.392C26.3109 171.175 26.0159 171.149 25.8228 171.322C25.7268 171.408 25.6719 171.531 25.6719 171.66V172.519C25.6719 173.049 25.8491 173.564 26.1754 173.982L27.3314 175.463C27.5184 175.703 27.724 175.927 27.9465 176.134L28.4704 176.622Z" fill="#1B1B1B"/>
<path d="M73.775 159.426L73.2115 161.868C73.0971 162.364 72.931 162.846 72.7159 163.307C72.3622 164.065 72.142 164.878 72.065 165.711L71.9038 167.454C71.8588 167.941 71.7757 168.423 71.6552 168.897C71.4638 169.65 71.3669 170.424 71.3669 171.201V171.529C71.3669 171.564 71.3668 171.599 71.3659 171.634C71.3608 171.84 71.3304 172.611 71.1574 173.086C70.9145 173.753 70.5918 174.393 70.4122 175.079L70.2656 175.64L71.3669 175.23C72.6196 174.722 73.7617 173.977 74.7298 173.034L75.9192 171.875L76.0362 164.92C76.0693 162.951 75.9086 160.984 75.5564 159.047L74.9511 155.719L73.775 159.426Z" fill="#292929"/>
<path d="M70.263 175.636L69.0843 177.232L68.4453 178.073C69.7057 177.67 70.8571 176.984 71.8111 176.068L72.023 175.864L72.1671 175.754C72.6242 175.404 73.1352 175.131 73.68 174.945L74.6511 174.614C74.9511 174.512 75.2166 174.328 75.4178 174.083C75.6341 173.82 75.7664 173.497 75.7978 173.158L75.9166 171.871L74.7272 173.03C73.7591 173.973 72.617 174.718 71.3643 175.226L70.263 175.636Z" fill="#171616"/>
<path d="M12.4849 67.1406L9.89562 74.9097L1.69531 114.086L18.4881 119.876L19.7831 124.349V101.016C19.7831 99.1233 19.6038 97.2343 19.2478 95.3747L16.9914 83.591L15.3014 77.4219L12.4849 67.1406Z" fill="#292929"/>
<path d="M94.0657 122.464L85.2339 74.9079L83.939 71.0234L75.6975 92.6878C75.3075 93.7131 74.838 94.7065 74.2936 95.6589L73.8467 96.4405C73.1912 97.5872 72.695 98.8178 72.3719 100.099L70.3626 108.063C69.8416 110.128 69.5781 112.249 69.5781 114.379V125.643L94.0657 122.464Z" fill="#292929"/>
<path d="M23.9646 163.339C24.8182 164.021 25.5916 164.799 26.2701 165.656L26.4012 165.821L27.0178 128.528L24.2895 101.322L22.6311 92.3372C21.7615 87.6257 19.7761 83.1911 16.8411 79.4043L15.3047 77.4219L16.9947 83.591L19.2511 95.3747C19.6071 97.2343 19.7864 99.1233 19.7864 101.016V124.349L17.9713 123.744L19.4653 127.897C19.9641 129.284 20.2904 130.727 20.437 132.193C20.5322 133.145 20.5513 134.103 20.494 135.058L20.2163 139.687L20.6198 156.463C20.6337 157.041 20.6988 157.617 20.8143 158.185L20.9703 158.95C21.1918 160.037 21.6796 161.053 22.3899 161.905C22.6783 162.251 23.0008 162.567 23.3526 162.849L23.9646 163.339Z" fill="#1E1E1E"/>
<path d="M68.0501 128.821L69.5804 125.643V114.379C69.5804 112.249 69.8439 110.128 70.3649 108.063C68.4286 106.43 65.495 108.019 65.8038 110.533L68.0501 128.821Z" fill="#1E1E1E"/>
<path fill-rule="evenodd" clip-rule="evenodd" d="M12.4844 67.1403L19.7826 62.6673L29.0582 57.8242C29.0582 57.8242 30.0027 60.5959 31.0372 62.1306C32.3702 64.1081 33.3531 65.1569 35.1845 66.6845C37.0965 68.2793 38.477 68.9979 40.5303 70.0667C40.7434 70.1776 40.9637 70.2923 41.1926 70.4121C41.2971 70.4668 41.3998 70.5207 41.5011 70.5738C43.9874 71.8773 45.5792 72.7118 48.4587 72.9875C49.3452 73.0724 50.4284 73.0117 51.415 72.907C53.2867 72.7085 55.0745 72.0736 56.774 71.2647C58.6668 70.3638 60.4293 69.2117 62.0141 67.8397L63.7089 66.3724L70.7706 58.8458C70.7706 58.8458 74.1246 59.8941 76.0491 61.0193C77.2326 61.7113 78.4964 62.7955 79.5975 63.8604L74.536 79.7415C72.4422 86.3108 71.7049 93.237 72.3687 100.1L70.3594 108.064C68.4231 106.431 65.4895 108.02 65.7983 110.534L68.0446 128.822L69.037 141.941L67.1218 151.745L64.9673 159.518C64.8536 159.928 64.6964 160.325 64.4985 160.702L64.239 161.196C63.9757 161.698 63.5989 162.131 63.1385 162.461C62.9974 162.562 62.8638 162.673 62.7386 162.793L61.9974 163.505C61.341 164.135 60.7335 164.814 60.1801 165.536L59.2525 166.747C58.9971 167.08 58.7799 167.441 58.605 167.823L58.5844 167.868C58.4396 168.184 58.3272 168.514 58.2491 168.852C58.1455 169.301 57.982 169.734 57.763 170.139L57.181 171.216L55.9042 173.633L55.3114 174.818C54.4396 175.359 53.4637 175.711 52.4472 175.851L42.4066 177.235H33.5602L33.1738 177.198C31.6912 177.056 30.2997 176.418 29.2235 175.389C29.5897 175.329 29.8566 175.01 29.8413 174.639C29.8122 173.934 29.7416 172.828 29.5753 172.251C29.5502 172.164 29.5267 172.087 29.5048 172.018C29.396 171.677 29.2187 171.364 29.0381 171.056L28.5803 170.273C28.1923 169.609 27.8674 168.91 27.6101 168.186L26.3974 165.821L27.014 128.528L24.2857 101.322L22.6273 92.3369C21.7577 87.6254 19.7723 83.1908 16.8373 79.404L15.3009 77.4216L12.4844 67.1403Z" fill="#292929"/>
<path d="M82.6416 67.1393C82.6416 67.1393 81.3184 65.523 79.5981 63.8594L74.5366 79.7405C72.4428 86.3098 71.7055 93.236 72.3693 100.099C72.6924 98.8183 73.1886 97.5877 73.8441 96.441L74.291 95.6594C74.8354 94.707 75.3049 93.7136 75.6949 92.6883L83.9364 71.0239L82.6416 67.1393Z" fill="#1E1E1E"/>
<path d="M9.63024 124.347L9.18856 128.352C8.97998 130.244 8.95185 132.151 9.10456 134.048L9.4468 138.299C9.56892 139.816 9.80629 141.321 10.1568 142.802L12.4859 152.641L13.1107 156.174C13.2896 157.186 13.3796 158.211 13.3796 159.238C13.3796 161.024 13.6515 162.8 14.1859 164.504L14.3322 164.97L15.3024 169.094L15.3611 169.292C15.739 170.567 16.2877 171.786 16.9924 172.914L17.5058 173.787C17.7605 174.221 18.1612 174.549 18.636 174.714C18.8944 174.803 19.1329 174.942 19.3384 175.123L21.1869 176.745L22.7281 177.972L23.8298 178.93C24.1327 179.193 24.4768 179.405 24.8484 179.557L25.2024 179.701C25.7801 179.937 26.4229 179.96 27.0155 179.764L26.9544 179.594C26.7993 179.161 26.5574 178.765 26.2434 178.429C26.114 178.291 25.9731 178.163 25.8222 178.048L24.4259 176.986C24.3338 176.916 24.2497 176.835 24.1754 176.747L23.6895 176.166C23.6636 176.135 23.6546 176.093 23.6657 176.054C23.6928 175.958 23.8172 175.934 23.8789 176.012L24.57 176.887C24.6166 176.946 24.6726 176.997 24.7356 177.038L27.2478 178.674L27.7691 179.127C27.9749 179.307 28.2688 179.342 28.5117 179.218L29.5768 178.674C29.4427 177.888 29.0537 177.167 28.4697 176.623L27.9458 176.135C27.7233 175.928 27.5177 175.704 27.3307 175.464L26.1747 173.983C25.8484 173.565 25.6712 173.05 25.6712 172.52V171.661C25.6712 171.532 25.7261 171.409 25.8221 171.323C26.0152 171.15 26.3102 171.176 26.4527 171.393C26.689 171.753 27.0423 172.354 27.3709 173.162C27.8053 174.229 29.225 175.387 29.225 175.387C29.5912 175.327 29.8581 175.008 29.8428 174.637C29.8137 173.932 29.7431 172.826 29.5768 172.249C29.5517 172.162 29.5282 172.085 29.5063 172.016C29.3975 171.675 29.2202 171.362 29.0396 171.054L28.5818 170.271C28.1938 169.607 27.8689 168.908 27.6116 168.184L26.3989 165.819L26.2678 165.654C25.5893 164.797 24.8159 164.019 23.9623 163.337L23.3503 162.847C22.9985 162.565 22.676 162.249 22.3876 161.903C21.6773 161.051 21.1895 160.035 20.968 158.948L20.812 158.183C20.6965 157.615 20.6314 157.039 20.6175 156.461L20.214 139.685L20.4917 135.056C20.549 134.101 20.5299 133.143 20.4347 132.191C20.2881 130.725 19.9618 129.282 19.463 127.895L17.969 123.742L9.63024 124.347Z" fill="#F9CB92"/>
<path d="M71.1062 128.821H70.3605L69.8133 134.78L69.0381 141.94L67.1229 151.744L64.9684 159.517C64.8547 159.927 64.6975 160.324 64.4996 160.701L64.2401 161.195C63.9768 161.697 63.6 162.13 63.1396 162.46C62.9985 162.561 62.8649 162.672 62.7397 162.792L61.9985 163.504C61.3421 164.134 60.7346 164.813 60.1812 165.535L59.2536 166.746C58.9982 167.079 58.781 167.44 58.6061 167.822L58.5855 167.867C58.4407 168.183 58.3283 168.513 58.2502 168.851C58.1466 169.3 57.9831 169.733 57.7641 170.138L57.1821 171.215L55.9053 173.632L55.3125 174.817L55.9053 175.228C56.3875 175.483 56.9672 175.471 57.4391 175.198L57.7253 175.031C57.9689 174.89 58.1827 174.703 58.3549 174.48L58.8693 173.814C59.4709 172.791 59.8557 171.656 59.9999 170.478L60.0549 170.029V171.716C60.0549 172.624 59.9284 173.527 59.6791 174.4C59.4442 175.222 59.1026 176.009 58.6629 176.742L58.3677 177.234L57.6378 177.883C57.5837 177.931 57.5669 178.009 57.5963 178.075L57.8262 178.592C57.9891 178.959 58.3526 179.195 58.7537 179.195C58.8305 179.195 58.9071 179.186 58.982 179.169L60.0549 178.921L60.6477 178.648L62.0032 175.916C62.083 175.755 62.2665 175.674 62.4391 175.724C62.6807 175.794 62.7842 176.079 62.6437 176.288L61.2405 178.374V178.648C61.2405 178.811 61.344 178.958 61.4987 179.012L62.9277 179.514H63.7766L65.1013 176.026C65.1394 175.926 65.2242 175.85 65.3284 175.824C65.6086 175.754 65.8361 176.055 65.6927 176.305L65.1621 177.234L64.5237 178.374C64.7821 178.718 65.1875 178.921 65.6181 178.921H66.2026L66.3403 178.739C66.8597 178.05 67.2168 177.254 67.3851 176.408L67.5448 175.606C67.5944 175.356 67.6954 175.12 67.8414 174.912L68.5042 173.965C68.6388 173.773 68.8929 173.707 69.1041 173.809C69.3607 173.933 69.4522 174.253 69.3 174.494L68.6792 175.479L68.2173 176.322L67.4877 177.964L67.8897 178.19C68.0775 178.295 68.3144 178.246 68.4447 178.075L69.0837 177.234L70.2624 175.638L70.409 175.077C70.5886 174.391 70.9113 173.751 71.1542 173.084C71.3272 172.609 71.3576 171.838 71.3627 171.632C71.3636 171.597 71.3637 171.562 71.3637 171.527V171.199C71.3637 170.422 71.4606 169.648 71.652 168.895C71.7725 168.421 71.8556 167.939 71.9006 167.452L72.0618 165.709C72.1388 164.876 72.359 164.063 72.7127 163.305C72.9278 162.844 73.0939 162.362 73.2083 161.866L73.7718 159.424L74.9479 155.717L81.0048 136.622L81.5905 134.519L81.5035 133.279C81.4688 132.785 81.2894 132.311 80.9877 131.917C80.8701 131.764 80.7352 131.624 80.5859 131.502L79.2533 130.407L78.3634 129.796C77.7191 129.354 77.0044 129.024 76.2497 128.821L74.2632 128.527L71.1062 128.821Z" fill="#F9CB92"/>
<path d="M61.2412 178.376L62.6444 176.29C62.7849 176.081 62.6814 175.796 62.4398 175.726C62.2672 175.676 62.0837 175.757 62.0039 175.918L60.6484 178.65L61.2412 178.376Z" fill="#B47238"/>
<path d="M64.5205 178.373L65.1589 177.233L65.6895 176.304C65.8329 176.054 65.6054 175.753 65.3252 175.823C65.221 175.849 65.1362 175.925 65.0981 176.025L63.7734 179.513H64.2013L64.5205 178.373Z" fill="#B47238"/>
<path d="M67.4882 177.964L68.2178 176.322L68.6797 175.479L69.3005 174.494C69.4527 174.253 69.3612 173.933 69.1046 173.809C68.8934 173.707 68.6393 173.773 68.5047 173.965L67.8419 174.912C67.6959 175.12 67.5949 175.356 67.5453 175.606L67.3856 176.408C67.2173 177.254 66.8602 178.05 66.3408 178.739L66.2031 178.921C66.4978 178.921 66.7778 178.792 66.9696 178.569L67.4882 177.964Z" fill="#B47238"/>
<path d="M23.8819 176.011C23.8202 175.933 23.6958 175.957 23.6687 176.053C23.6576 176.092 23.6666 176.134 23.6925 176.165L24.1784 176.746C24.2527 176.834 24.3368 176.915 24.4289 176.985L25.8252 178.047C25.9761 178.162 26.117 178.29 26.2464 178.428C26.5604 178.764 26.8023 179.16 26.9574 179.593L27.0185 179.763L27.3233 179.589C27.5136 179.48 27.6692 179.32 27.7721 179.126L27.2508 178.673L24.7386 177.037C24.6756 176.996 24.6196 176.945 24.573 176.886L23.8819 176.011Z" fill="#4A2312"/>
<path d="M45.4641 37.9079L41.8359 38.8306C41.8359 38.8306 44.6955 39.4831 46.5532 39.4493C48.4048 39.4156 49.4688 39.2369 51.2299 38.6641C50.6077 38.5389 48.6541 37.9197 48.0287 37.8113C47.4033 37.703 47.5396 37.959 46.907 37.9079C46.3453 37.8625 46.7428 37.6207 45.4641 37.9079Z" fill="#7B262B"/>
<path d="M44.1336 37.036C42.7459 37.676 41.2109 38.6614 41.2109 38.6614L41.8412 38.8279L45.4694 37.9052C46.7481 37.618 46.3506 37.8598 46.9123 37.9052C47.5449 37.9563 47.4086 37.7003 48.034 37.8086C48.6594 37.917 50.613 38.5362 51.2352 38.6614C50.3888 37.6434 49.439 37.036 48.1598 36.6946C47.4294 36.4997 47.1652 36.7939 46.4125 36.8643C45.3547 36.9631 45.0983 36.591 44.1336 37.036Z" fill="#A35A4C"/>
<path d="M45.0204 30.9958C44.5452 30.6564 43.7032 31.1353 43.6954 31.7192C43.6889 32.1973 43.974 32.4951 44.4517 32.4745C44.9119 32.4547 45.1684 32.024 45.2024 31.5646C45.2277 31.2223 45.2024 31.1259 45.0204 30.9958Z" fill="#4A191A"/>
<path d="M48.335 31.1441C48.0999 31.1154 47.9312 31.1286 47.8198 31.3376C47.7154 31.5335 47.8198 32.475 47.8198 32.475C47.8198 32.475 47.8871 32.5923 48.1573 32.6542C48.4349 32.7179 48.7661 32.5574 48.7969 32.2278C48.8091 32.0973 48.7904 31.9058 48.7428 31.7197C48.7294 31.6672 48.7137 31.6152 48.6957 31.5651C48.6171 31.3459 48.4956 31.1638 48.335 31.1441Z" fill="#49191A"/>
<path d="M42.6356 20.6452C43.3254 20.6627 44.3586 20.2536 44.3586 20.2536L43.6539 17.4342C43.6539 17.4342 40.6302 16.6516 38.7202 16.9644C37.573 17.1522 37.1817 18.3509 36.4111 18.7483C36.3941 18.8427 36.3769 18.9363 36.3594 19.0293C37.3076 19.0459 38.3983 18.6456 39.8163 19.1572C40.9874 19.5797 41.391 20.6137 42.6356 20.6452Z" fill="#925B46"/>
<path fill-rule="evenodd" clip-rule="evenodd" d="M39.3382 22.3089C38.8522 22.3036 38.3024 22.4729 37.7971 22.6924C37.7971 22.6924 37.8636 22.7175 37.6136 22.9365C37.6136 22.9365 37.4839 23.2538 37.5326 23.4515C37.5823 23.6533 37.5 24.0631 37.5 24.0631C38.0259 24.34 38.743 24.6628 39.3382 24.7334C39.7489 24.7821 40.2486 24.7283 40.7028 24.6453C40.7028 24.6453 41.8682 24.1394 41.9585 23.6843C42.0446 23.2504 41.1286 22.8438 41.1286 22.8438C40.5654 22.5634 39.9082 22.3151 39.3382 22.3089ZM38.3492 23.3236C38.3492 22.3731 39.692 22.2969 39.692 22.2969C39.692 22.2969 40.9457 22.4147 40.9457 23.1154C40.9457 23.7598 40.4767 24.2842 39.8357 24.3502C39.1339 24.4225 38.3492 24.1197 38.3492 23.3236Z" fill="#B79685"/>
<path fill-rule="evenodd" clip-rule="evenodd" d="M39.6866 22.2969C39.6866 22.2969 38.3438 22.3731 38.3438 23.3236C38.3438 24.1197 39.1284 24.4225 39.8302 24.3502C40.4712 24.2842 40.9403 23.7598 40.9403 23.1154C40.9403 22.4147 39.6866 22.2969 39.6866 22.2969ZM39.6866 22.9365C39.9376 22.9229 40.2071 22.9565 40.2743 23.1987C40.354 23.4855 39.9841 23.6731 39.6866 23.6843C39.4162 23.6944 39.1036 23.594 39.095 23.3236C39.0928 23.2544 39.1114 23.1965 39.1451 23.1484C39.0917 23.1187 39.0633 23.0769 39.061 22.9877C39.0556 22.7871 39.4055 22.8272 39.5995 22.9439C39.6287 22.9405 39.658 22.938 39.6866 22.9365Z" fill="#86564B"/>
<path d="M40.281 23.1984C40.2138 22.9562 39.9443 22.9226 39.6933 22.9362C39.6647 22.9377 39.6355 22.9402 39.6063 22.9436C39.6933 22.9959 39.7527 22.9727 39.6933 23.1151C39.6303 23.2664 39.4374 23.2505 39.2821 23.1984L39.2691 23.194C39.2219 23.1782 39.1827 23.1652 39.1519 23.1481C39.1182 23.1962 39.0995 23.2541 39.1017 23.3233C39.1103 23.5937 39.4229 23.6941 39.6933 23.684C39.9908 23.6728 40.3607 23.4852 40.281 23.1984Z" fill="#582C2B"/>
<path d="M39.2786 23.2001C39.4339 23.2522 39.6268 23.2681 39.6898 23.1168C39.7492 22.9744 39.6898 22.9976 39.6028 22.9453C39.5925 22.9465 39.5821 22.9478 39.5718 22.9493C39.4001 22.9734 39.2303 23.0329 39.1484 23.1498C39.1792 23.1669 39.2184 23.1799 39.2656 23.1957L39.2786 23.2001Z" fill="#B5AFAF"/>
<path d="M39.6012 22.9447C39.4072 22.828 39.0572 22.7879 39.0626 22.9885C39.0649 23.0777 39.0934 23.1195 39.1468 23.1492C39.2287 23.0323 39.3985 22.9728 39.5702 22.9487C39.5805 22.9472 39.5909 22.9459 39.6012 22.9447Z" fill="#B5AFAF"/>
<path d="M41.9868 24.323L42.4501 23.6388C42.4501 23.6388 41.8712 23.2133 41.1289 22.8438C41.1289 22.8438 42.0449 23.2503 41.9588 23.6842C41.8685 24.1393 40.7031 24.6453 40.7031 24.6453C41.3982 24.5183 41.9868 24.323 41.9868 24.323Z" fill="#B1846D"/>
<path d="M42.9169 24.3249L42.4477 23.6406L41.9844 24.3249H42.9169Z" fill="#B1846D"/>
<path d="M37.4227 23.1164C37.2985 23.2422 36.7656 23.6398 36.7656 23.6398C36.7656 23.6398 37.0688 23.8365 37.5011 24.0641C37.5011 24.0641 37.5834 23.6543 37.5337 23.4525C37.485 23.2548 37.6147 22.9375 37.6147 22.9375C37.5456 22.9981 37.4793 23.0592 37.4227 23.1164Z" fill="#B1846D"/>
<path d="M36.125 23.6378H36.7591C36.7591 23.6378 37.292 23.2402 37.4162 23.1144C37.4728 23.0572 37.5391 22.9961 37.6082 22.9355C37.8582 22.7165 37.7917 22.6914 37.7917 22.6914C36.8872 23.0843 36.125 23.6378 36.125 23.6378Z" fill="#B1846D"/>
<path d="M41.0547 2.1676L42.1419 5.53145C42.1419 5.53145 43.7344 3.89758 45.5579 3.66975C51.4031 2.93946 55.4557 5.63129 59.1428 10.2253C62.8761 14.8768 62.5571 25.1117 62.5571 25.1117L61.6011 37.8095C61.6011 37.8095 65.4937 44.948 65.152 49.8314C64.913 53.2469 64.3325 61.3976 64.3325 61.3976L66.108 69.3613C66.108 69.3613 68.9012 75.6907 69.2492 80.0139C69.5809 84.1354 68.02 90.53 68.02 90.53L67.5729 93.2446C67.5729 93.2446 66.2876 98.6232 66.108 102.139C65.817 107.834 68.02 116.615 68.02 116.615L69.3857 120.303L70.7515 123.99L71.5709 134.643C71.5709 134.643 76.3728 120.926 73.8926 112.655C72.9264 109.433 70.8649 108.169 70.2052 104.87C69.6717 102.203 70.1076 100.623 70.2052 97.905C70.3898 92.7605 71.5709 84.794 71.5709 84.794C71.5709 84.794 74.5984 76.4288 74.5755 70.8636C74.553 65.4026 72.0413 62.647 71.5709 57.2063C71.2591 53.6001 71.8355 51.5476 71.5709 47.9377C71.0165 40.3723 67.2006 29.0115 67.2006 29.0115C67.2006 29.0115 66.9051 16.4064 62.5571 10.2253C59.8406 6.36348 57.7994 4.21178 53.5433 2.1676C50.8458 0.872013 49.1336 -0.212604 46.1595 0.118884C44.0246 0.356836 41.0547 2.1676 41.0547 2.1676Z" fill="#5E423F"/>
<path d="M37.5733 7.85286C31.7404 12.0496 33.5722 18.3295 31.0085 25.0424L32.2365 38.3051L34.0119 51.283C34.7053 56.3512 29.6223 56.5838 28.9587 60.7065C28.1447 65.7641 32.2365 73.4078 32.2365 73.4078L36.2484 81.1924C36.2484 81.1924 33.8111 73.5236 34.0119 68.4912C34.165 64.655 34.8326 62.7016 35.9904 58.8614C39.6855 55.012 41.8146 51.6225 40.8918 46.3671C40.3347 43.1944 38.357 41.5061 37.2195 38.4925C36.0803 35.4743 35.1099 30.5057 35.1099 30.5057C35.1099 30.5057 34.2232 27.9846 34.8123 25.5205C35.3915 23.0979 35.943 21.266 36.3625 19.0305C36.07 19.0253 36.2484 18.8404 36.2484 18.8404C36.2484 18.8404 36.0929 18.9152 36.4142 18.7495C36.4884 18.3368 36.5581 17.9094 36.6227 17.4614C36.9943 14.8841 36.1297 12.8598 37.8536 10.9082C39.1343 9.45829 42.2994 8.72305 42.2994 8.72305L42.3995 7.03349L42.1458 5.53125C42.1458 5.53125 39.1989 6.68325 37.5733 7.85286Z" fill="#836358"/>
<path d="M26.5011 41.0911C24.7956 51.5082 23.9062 67.996 23.9062 67.996C23.9062 67.996 25.8817 56.0993 27.8668 48.6457C29.0046 44.3736 32.2318 38.3057 32.2318 38.3057L31.0038 25.043C29.4043 31.4432 27.5669 34.5807 26.5011 41.0911Z" fill="#95756A"/>
<path d="M32.2318 38.3047C32.2318 38.3047 29.0046 44.3726 27.8668 48.6447C25.8817 56.0983 23.9062 67.995 23.9062 67.995L25.8182 73.8676C25.8182 73.8676 29.8602 81.322 30.4617 86.5689C30.9676 90.9825 29.8624 93.4762 29.5057 97.9044C29.2565 100.997 28.8884 105.825 28.8884 105.825C28.8884 105.825 32.9936 112.894 32.92 117.844C32.8838 120.283 31.8066 123.989 31.8066 123.989L29.5057 136.691L31.1446 133.686C31.1446 133.686 33.853 128.723 35.1565 125.355C37.9642 118.102 39.0637 105.825 39.0637 105.825C39.0637 105.825 39.5476 101.225 40.1943 95.3477C40.8409 89.4699 38.7449 86.5256 36.2437 81.192L32.2318 73.4074C32.2318 73.4074 28.14 65.7637 28.954 60.7061C29.6176 56.5834 34.7006 56.3508 34.0072 51.2826L32.2318 38.3047Z" fill="#6C4F54"/>
<path d="M25.822 73.8672C25.822 73.8672 22.7517 80.3432 22.5448 84.793C22.2996 90.065 25.4683 92.6382 25.822 97.904C26.2113 103.699 24.6567 106.894 23.91 112.654L25.822 122.624V127.404V133.686L27.8706 127.404V118.936L28.8922 105.825C28.8922 105.825 29.2603 100.997 29.5095 97.904C29.8662 93.4758 30.9714 90.9821 30.4655 86.5685C29.864 81.3216 25.822 73.8672 25.822 73.8672Z" fill="#4D3C4C"/>
<path d="M23.9082 67.9961C23.9082 67.9961 20.7668 74.4663 19.811 78.9219C19.3255 81.1854 19.2761 82.6473 19.0038 84.7945C19.3191 85.8079 19.4933 86.3768 19.811 87.3894C20.8512 90.7047 22.0904 92.4119 22.543 95.8569C23.1513 100.487 21.812 103.111 21.1771 107.738C20.3022 114.114 18.4453 123.99 18.4453 123.99L19.811 134.644C19.811 134.644 22.0184 130.38 22.543 127.405C22.7755 126.086 22.7356 125.324 22.859 123.99L23.9082 112.655C24.6549 106.895 26.2095 103.7 25.8202 97.9055C25.4665 92.6397 22.2978 90.0665 22.543 84.7945C22.7499 80.3447 25.8202 73.8687 25.8202 73.8687L23.9082 67.9961Z" fill="#71565C"/>
<path d="M8.28345 119.479C8.28345 123.213 8.90542 123.548 9.0235 126.177C9.10488 127.988 9.0235 130.82 9.0235 130.82C9.0235 130.82 10.5007 128.822 11.2091 127.406C12.2129 125.4 12.9846 121.943 12.9846 121.943C12.9846 121.943 12.184 114.467 12.9846 109.788C13.6847 105.696 15.3879 101.2 17.5744 97.6719C15.2005 101.181 11.5347 106.375 9.0235 109.788C5.63148 114.397 8.28345 116.813 8.28345 119.479Z" fill="#7E6260"/>
<path d="M41.055 2.16797C41.055 2.16797 37.6795 3.5827 35.8857 5.036C32.3955 7.86379 29.9176 14.8691 29.9176 14.8691C29.9176 14.8691 26.0637 22.6534 24.5909 27.9801C22.4298 35.7969 23.2238 40.5644 22.5421 48.6457C21.9052 56.1944 21.1762 67.996 21.1762 67.996C21.1762 67.996 20.2576 74.9148 18.4444 78.9218C17.5879 80.8144 16.5899 81.6244 15.8495 83.5653C14.6423 86.7299 15.6911 88.9137 14.7567 92.1694C13.4532 96.7109 9.02038 102.822 9.02038 102.822C9.02038 102.822 6.53797 106.41 5.46984 108.967C2.87204 115.188 2.27723 119.687 4.10427 126.176C5.21643 130.126 9.02038 135.463 9.02038 135.463V130.819C9.02038 130.819 9.10176 127.987 9.02038 126.176C8.9023 123.547 8.28033 123.212 8.28033 119.478C8.28033 116.812 5.62836 114.396 9.02038 109.787C11.5316 106.374 15.1974 101.18 17.5713 97.671L18.2205 92.1694C18.3709 90.0919 18.6725 87.3999 19.0029 84.7944C19.2752 82.6472 19.3246 81.1853 19.8101 78.9218C20.7659 74.4662 23.9073 67.996 23.9073 67.996C23.9073 67.996 24.7967 51.5082 26.5022 41.0911C27.568 34.5807 29.4054 31.4432 31.0049 25.043C33.5686 18.3301 31.7368 12.0502 37.5697 7.85343C39.1953 6.68382 42.1422 5.53182 42.1422 5.53182L41.055 2.16797Z" fill="#8D7972"/>
<path d="M12.9808 109.786C12.1802 114.465 12.9808 121.941 12.9808 121.941L14.756 130.818L15.8488 123.989C15.8488 123.989 17.9734 114.902 18.4437 108.966C18.4437 108.966 18.4416 97.4203 18.6461 96.7913C18.8505 96.1623 18.0528 94.4725 18.2198 92.168L17.5706 97.6696C15.3841 101.198 13.6809 105.694 12.9808 109.786Z" fill="#64545E"/>
<path d="M18.4465 123.989C18.4465 123.989 20.3034 114.113 21.1783 107.737C21.8132 103.11 23.1525 100.486 22.5442 95.8554C22.0916 92.4104 20.8524 90.7032 19.8122 87.3879C19.4945 86.3753 19.3203 85.8064 19.005 84.793C18.6746 87.3985 18.373 90.0905 18.2226 92.168C18.0556 94.4725 18.8533 96.1623 18.6489 96.7913C18.4444 97.4203 18.4465 108.966 18.4465 108.966C17.9762 114.902 15.8516 123.989 15.8516 123.989L16.8518 130.818L18.4465 123.989Z" fill="#4D3C4C"/>
<path d="M25.8206 122.626L23.9086 112.656L22.8594 123.991L23.9086 132.459L25.8206 122.626Z" fill="#3E2C3C"/>
<path d="M28.8888 105.824L27.8672 118.935L28.8888 130.134L31.807 123.988C31.807 123.988 32.8842 120.282 32.9204 117.843C32.994 112.893 28.8888 105.824 28.8888 105.824Z" fill="#3E2C3C"/>
<path d="M35.9903 58.8633C34.8325 62.7035 34.1649 64.6569 34.0118 68.4931C33.811 73.5255 36.2483 81.1943 36.2483 81.1943C38.7495 86.5279 40.8455 89.4722 40.1989 95.35C39.5522 101.228 39.0682 105.828 39.0682 105.828C39.0682 105.828 41.4913 100.652 41.9603 97.0873C42.1562 95.5981 42.1616 93.2463 42.1616 93.2463C42.1616 93.2463 41.1616 89.602 40.1989 87.3906C39.5299 85.8539 38.8316 85.1387 38.2509 83.5666C36.5324 78.9136 38.8922 75.7838 38.2509 70.8653C37.5977 65.8549 36.9126 63.8235 35.9903 58.8633Z" fill="#3C222B"/>
<path d="M47.3306 47.9376C46.5932 48.1576 46.1476 48.2346 45.3786 48.2063C44.3991 48.1703 43.4986 47.9646 42.7401 47.6059C42.7401 47.6059 41.5567 47.0146 40.8906 46.3672L43.9916 54.9948L49.2596 48.6452L49.4444 46.8506C49.4444 46.8506 48.2201 47.6722 47.3306 47.9376Z" fill="#69403A"/>
<path d="M43.9916 54.9948L40.8906 46.3672L41.9592 59.2548L43.9916 54.9948Z" fill="#3C222B"/>
<path d="M40.8858 46.3672C41.8086 51.6226 39.6795 55.0121 35.9844 58.8615C36.9067 63.8217 37.5918 65.8531 38.245 70.8635C38.8863 75.782 36.5265 78.9118 38.245 83.5648C38.8257 85.1369 39.524 85.8521 40.193 87.3888C41.1557 89.6002 42.1557 93.2445 42.1557 93.2445C42.1557 93.2445 42.3933 88.7089 42.5456 85.8026C42.5663 85.4087 42.5985 84.7939 42.5985 84.7939L42.9865 74.551L41.9544 59.2548L40.8858 46.3672Z" fill="#6C4D4C"/>
<path d="M61.5998 37.8093L62.5558 25.1115C62.5558 25.1115 62.8748 14.8766 59.1415 10.2251C55.4544 5.63112 51.4018 2.93929 45.5566 3.66958C43.7331 3.89741 42.1406 5.53128 42.1406 5.53128L42.3943 7.03352C42.3943 7.03352 43.902 6.09821 45.5566 6.26446C50.2138 6.73241 53.1633 8.81785 55.5906 12.8199C57.7186 16.3286 56.4897 19.1628 57.2295 23.1992C57.8956 26.8339 57.8951 28.9876 59.1415 32.4663C59.9162 34.6285 61.5998 37.8093 61.5998 37.8093Z" fill="#4B2E30"/>
<path d="M42.2969 8.72451C42.2969 8.72451 46.4446 10.6448 46.5572 11.279C47.3518 15.7549 48.7005 15.8368 50.36 20.069C52.1224 24.5633 54.4314 26.5826 55.5933 31.2682C56.0614 33.1558 56.4127 36.1801 56.4127 36.1801C56.4127 36.1801 59.5768 53.0307 59.1442 63.8997C58.8358 71.6475 57.5176 75.8913 56.4127 83.5662C55.3294 91.0918 55.533 95.4843 53.5447 102.823C51.7807 109.333 47.3293 118.938 47.3293 118.938C47.3293 118.938 47.7399 123.38 47.3293 126.177C46.7694 129.99 43.9903 135.464 43.9903 135.464C43.9903 135.464 46.7112 133.812 48.2184 132.459C50.7979 130.143 51.5128 128.166 53.5447 125.357C55.2066 123.06 57.7168 119.415 57.7168 119.415L58.0516 118.938L60.1002 104.871C60.1002 104.871 60.5863 96.1149 61.1928 90.5313C61.8737 84.2625 63.2638 80.8531 63.5145 74.5524C63.7695 68.143 64.3339 61.3989 64.3339 61.3989C64.3339 61.3989 64.9144 53.2482 65.1534 49.8327C65.4951 44.9493 61.6025 37.8108 61.6025 37.8108C61.6025 37.8108 59.9189 34.63 59.1442 32.4678C57.8978 28.9891 57.8983 26.8354 57.2322 23.2007C56.4924 19.1643 57.7213 16.3301 55.5933 12.8214C53.166 8.81928 50.2165 6.73384 45.5593 6.26589C43.9047 6.09964 42.397 7.03495 42.397 7.03495L42.2969 8.72451Z" fill="#876861"/>
<path d="M49.2535 48.6449L43.9855 54.9945L41.9531 59.2545L42.9852 74.5507L42.5972 84.7936C42.5972 84.7936 42.565 85.4084 42.5443 85.8023C44.2477 88.7086 46.9062 93.2442 46.9062 93.2442L47.3245 87.3885C47.3245 87.3885 45.9325 79.06 46.9062 73.8678C47.4099 71.1818 48.3847 69.849 48.9517 67.1757C49.7624 63.3536 48.5013 60.8955 49.7867 57.2059C51.1154 53.392 55.5885 48.6449 55.5885 48.6449L57.2274 41.0903L56.4079 36.1784C56.4079 36.1784 56.0566 33.1541 55.5885 31.2665C54.4266 26.5809 52.1176 24.5616 50.3552 20.0673C48.6957 15.8351 47.347 15.7532 46.5524 11.2773C47.0924 15.7844 47.8386 16.1337 48.3314 20.6462C48.5758 22.8837 47.8597 24.3432 48.7933 26.3912C49.3849 27.689 50.9897 29.3091 50.9897 29.3091L53.5399 32.0397C53.5399 32.0397 55.4237 34.7043 55.5885 36.6774C55.7924 39.119 53.5399 42.6074 53.5399 42.6074L49.2535 48.6449Z" fill="#8F695E"/>
<path d="M55.5906 48.6445C55.5906 48.6445 51.1175 53.3916 49.7888 57.2055C48.5034 60.8951 49.7645 63.3532 48.9538 67.1753C48.3868 69.8486 47.412 71.1814 46.9083 73.8674C45.9346 79.0596 47.3266 87.3881 47.3266 87.3881L46.9083 93.2438L51.3456 86.5687C51.3456 86.5687 50.8351 82.9923 50.9436 80.696C51.2071 75.1189 54.5522 72.6612 55.5906 67.1753C56.9364 60.0648 55.5906 48.6445 55.5906 48.6445Z" fill="#593A38"/>
<path d="M57.231 41.0916L55.5921 48.6462C55.5921 48.6462 56.9379 60.0665 55.5921 67.177C54.5537 72.6629 51.2086 75.1206 50.9451 80.6977C50.8366 82.994 51.3471 86.5704 51.3471 86.5704L49.4316 107.056L47.3281 118.938C47.3281 118.938 51.7795 109.333 53.5435 102.823C55.5318 95.4839 55.3282 91.0914 56.4115 83.5658C57.5164 75.8909 58.8346 71.6471 59.143 63.8993C59.5756 53.0303 56.4115 36.1797 56.4115 36.1797L57.231 41.0916Z" fill="#6C4F54"/>
<path d="M68.0236 90.5308C68.0236 90.5308 69.5845 84.1362 69.2528 80.0147C68.9048 75.6915 66.1116 69.3621 66.1116 69.3621L64.3361 61.3984C64.3361 61.3984 63.7717 68.1425 63.5167 74.5519C63.266 80.8526 61.8759 84.262 61.195 90.5308C60.5885 96.1144 60.1024 104.871 60.1024 104.871L58.0538 118.938L57.719 119.415L53.5469 133.688C53.5469 133.688 60.1934 131.275 61.195 129.318C62.1965 127.36 64.2269 123.145 64.3361 121.943C64.4454 120.741 63.8354 114.431 63.5167 111.427C63.5167 111.427 63.0546 106.647 63.5167 103.642C64.1792 99.3338 67.5765 93.2454 67.5765 93.2454L68.0236 90.5308Z" fill="#71565C"/>
<path d="M68.017 116.616C68.017 116.616 65.814 107.835 66.105 102.14C66.2846 98.6247 67.5699 93.2461 67.5699 93.2461C67.5699 93.2461 64.1726 99.3345 63.5101 103.642C63.048 106.647 63.5101 111.427 63.5101 111.427C63.8288 114.431 64.4388 120.741 64.3295 121.943L63.5101 135.464C63.5101 135.464 66.3995 132.476 67.5699 130.137C69.3174 126.645 69.3827 120.304 69.3827 120.304L68.017 116.616Z" fill="#3E2C3C"/>
<path d="M49.4426 46.8498L49.2578 48.6444L53.5442 42.6069C53.5442 42.6069 55.7967 39.1185 55.5928 36.6769C55.428 34.7038 53.5442 32.0392 53.5442 32.0392L50.994 29.3086L51.2334 35.8142C51.2334 35.8142 51.2334 37.5495 51.2334 38.6614C50.5175 40.9395 49.4002 44.4948 49.4002 44.4948L49.4426 46.8498Z" fill="#7F4843"/>
<path d="M45.9911 102.82C45.9911 102.82 47.1904 108.285 45.9911 111.424C45.0921 113.777 43.827 114.724 42.1607 116.613C40.7477 118.215 38.25 120.438 38.25 120.438C38.25 120.438 43.6963 118.37 45.9911 115.657C48.3287 112.894 49.4343 107.053 49.4343 107.053L46.9125 93.2427C46.9125 93.2427 44.254 88.7071 42.5506 85.8008C42.3983 88.7071 42.1607 93.2427 42.1607 93.2427L45.9911 102.82Z" fill="#6C4D4C"/>
<path d="M46.9062 93.2454L49.4281 107.056L51.3435 86.5703L46.9062 93.2454Z" fill="#593A38"/>
</svg>
